<svg version="1.1" viewBox="0.0 0.0 960.0 720.0" fill="none" stroke="none" stroke-linecap="square" stroke-miterlimit="10" xmlns:xlink="http://www.w3.org/1999/xlink" xmlns="http://www.w3.org/2000/svg"><clipPath id="p.0"><path d="m0 0l960.0 0l0 720.0l-960.0 0l0 -720.0z" clip-rule="nonzero"/></clipPath><g clip-path="url(#p.0)"><path fill="#000000" fill-opacity="0.0" d="m0 0l960.0 0l0 720.0l-960.0 0z" fill-rule="evenodd"/><path fill="#000000" fill-opacity="0.0" d="m355.5958 168.43832l172.85037 0l0 73.98425l-172.85037 0z" fill-rule="evenodd"/><path fill="#000000" d="m375.73642 195.26332l0 13.953125l7.765625 0q3.015625 0 4.03125 -0.921875q1.359375 -1.1875 1.515625 -4.21875l0.96875 0l0 12.296875l-0.96875 0q-0.359375 -2.578125 -0.734375 -3.3125q-0.46875 -0.90625 -1.53125 -1.421875q-1.0625 -0.53125 -3.28125 -0.53125l-7.765625 0l0 11.640625q0 2.34375 0.203125 2.859375q0.21875 0.5 0.734375 0.8125q0.53125 0.296875 1.984375 0.296875l5.984375 0q3.0 0 4.34375 -0.421875q1.359375 -0.421875 2.609375 -1.640625q1.609375 -1.609375 3.3125 -4.875l1.03125 0l-3.046875 8.859375l-27.203125 0l0 -0.96875l1.25 0q1.25 0 2.375 -0.59375q0.828125 -0.421875 1.125 -1.25q0.296875 -0.828125 0.296875 -3.40625l0 -22.9375q0 -3.359375 -0.671875 -4.140625q-0.9375 -1.046875 -3.125 -1.046875l-1.25 0l0 -0.96875l27.203125 0l0.390625 7.734375l-1.015625 0q-0.546875 -2.78125 -1.203125 -3.8125q-0.65625 -1.046875 -1.96875 -1.59375q-1.03125 -0.390625 -3.671875 -0.390625l-9.6875 0zm32.371826 16.84375l0 10.28125q0 3.328125 0.734375 4.140625q0.984375 1.140625 2.984375 1.140625l1.359375 0l0 0.96875l-15.125 0l0 -0.96875l1.328125 0q2.234375 0 3.203125 -1.453125q0.515625 -0.8125 0.515625 -3.828125l0 -22.8125q0 -3.328125 -0.703125 -4.140625q-1.015625 -1.140625 -3.015625 -1.140625l-1.328125 0l0 -0.96875l12.9375 0q4.734375 0 7.46875 0.984375q2.734375 0.96875 4.609375 3.296875q1.875 2.3125 1.875 5.484375q0 4.328125 -2.859375 7.03125q-2.84375 2.703125 -8.046875 2.703125q-1.28125 0 -2.765625 -0.171875q-1.484375 -0.1875 -3.171875 -0.546875zm0 -1.484375q1.375 0.25 2.4375 0.390625q1.078125 0.125 1.828125 0.125q2.71875 0 4.671875 -2.09375q1.96875 -2.09375 1.96875 -5.4375q0 -2.28125 -0.9375 -4.25q-0.9375 -1.96875 -2.65625 -2.9375q-1.71875 -0.984375 -3.90625 -0.984375q-1.328125 0 -3.40625 0.5l0 14.6875zm33.90857 14.578125q-3.671875 2.84375 -4.609375 3.28125q-1.40625 0.65625 -3.0 0.65625q-2.46875 0 -4.078125 -1.6875q-1.59375 -1.703125 -1.59375 -4.46875q0 -1.734375 0.78125 -3.015625q1.0625 -1.765625 3.703125 -3.328125q2.640625 -1.5625 8.796875 -3.8125l0 -0.9375q0 -3.5625 -1.140625 -4.890625q-1.125 -1.328125 -3.296875 -1.328125q-1.640625 0 -2.59375 0.890625q-1.0 0.875 -1.0 2.03125l0.0625 1.5q0 1.203125 -0.625 1.859375q-0.609375 0.640625 -1.59375 0.640625q-0.96875 0 -1.578125 -0.671875q-0.609375 -0.671875 -0.609375 -1.84375q0 -2.25 2.28125 -4.125q2.296875 -1.875 6.4375 -1.875q3.1875 0 5.21875 1.078125q1.53125 0.796875 2.265625 2.515625q0.46875 1.125 0.46875 4.59375l0 8.09375q0 3.40625 0.125 4.1875q0.125 0.765625 0.421875 1.03125q0.3125 0.25 0.703125 0.25q0.40625 0 0.71875 -0.1875q0.546875 -0.328125 2.109375 -1.890625l0 1.453125q-2.90625 3.90625 -5.5625 3.90625q-1.28125 0 -2.046875 -0.875q-0.75 -0.890625 -0.765625 -3.03125zm0 -1.6875l0 -9.09375q-3.9375 1.5625 -5.078125 2.21875q-2.0625 1.140625 -2.953125 2.390625q-0.875 1.25 -0.875 2.734375q0 1.875 1.109375 3.109375q1.125 1.234375 2.578125 1.234375q1.984375 0 5.21875 -2.59375zm17.122711 -19.4375l0 5.375q3.0 -5.375 6.15625 -5.375q1.421875 0 2.359375 0.875q0.9375 0.875 0.9375 2.015625q0 1.015625 -0.671875 1.71875q-0.671875 0.703125 -1.609375 0.703125q-0.921875 0 -2.0625 -0.890625q-1.125 -0.90625 -1.671875 -0.90625q-0.46875 0 -1.015625 0.53125q-1.171875 1.0625 -2.421875 3.515625l0 11.421875q0 1.984375 0.5 3.0q0.34375 0.703125 1.203125 1.171875q0.859375 0.46875 2.46875 0.46875l0 0.9375l-12.21875 0l0 -0.9375q1.828125 0 2.71875 -0.578125q0.640625 -0.40625 0.90625 -1.328125q0.125 -0.4375 0.125 -2.515625l0 -9.25q0 -4.171875 -0.171875 -4.953125q-0.15625 -0.796875 -0.625 -1.15625q-0.453125 -0.375 -1.125 -0.375q-0.8125 0 -1.828125 0.390625l-0.25 -0.9375l7.203125 -2.921875l1.09375 0zm17.836792 -12.46875l0 23.71875l6.078125 -5.515625q1.921875 -1.765625 2.234375 -2.234375q0.203125 -0.3125 0.203125 -0.625q0 -0.53125 -0.4375 -0.90625q-0.421875 -0.375 -1.40625 -0.421875l0 -0.84375l10.359375 0l0 0.84375q-2.125 0.046875 -3.546875 0.65625q-1.421875 0.59375 -3.109375 2.125l-6.125 5.65625l6.125 7.734375q2.546875 3.203125 3.4375 4.0625q1.25 1.21875 2.1875 1.578125q0.640625 0.265625 2.25 0.265625l0 0.9375l-11.578125 0l0 -0.9375q0.984375 -0.03125 1.328125 -0.296875q0.359375 -0.28125 0.359375 -0.765625q0 -0.609375 -1.03125 -1.9375l-7.328125 -9.34375l0 7.921875q0 2.3125 0.328125 3.046875q0.328125 0.71875 0.921875 1.03125q0.609375 0.3125 2.609375 0.34375l0 0.9375l-12.140625 0l0 -0.9375q1.828125 0 2.734375 -0.4375q0.546875 -0.296875 0.84375 -0.890625q0.390625 -0.859375 0.390625 -2.96875l0 -21.71875q0 -4.140625 -0.1875 -5.0625q-0.1875 -0.921875 -0.609375 -1.265625q-0.40625 -0.359375 -1.078125 -0.359375q-0.546875 0 -1.640625 0.4375l-0.453125 -0.90625l7.09375 -2.921875l1.1875 0z" fill-rule="nonzero"/></g></svg>