<?xml version="1.0" encoding="iso-8859-1"?>
<!-- Generator: Adobe Illustrator 22.0.1, SVG Export Plug-In . SVG Version: 6.00 Build 0)  -->
<svg version="1.1" id="Layer_1" xmlns="http://www.w3.org/2000/svg" xmlns:xlink="http://www.w3.org/1999/xlink" x="0px" y="0px"
	 viewBox="0 0 64 64" style="enable-background:new 0 0 64 64;" xml:space="preserve">
<style type="text/css">
	.st0{fill:#F8F3F3;}
	.st1{fill:#63312D;}
	.st2{fill:#E1DDDD;}
	.st3{fill:#84DBFF;}
	.st4{fill:#CAF4FF;}
	.st5{fill:#52BADB;}
	.st6{fill:#F9DD9D;}
	.st7{fill:#FFEECF;}
	.st8{fill:#EFC36A;}
	.st9{fill:#F7A085;}
	.st10{fill:#82D9FF;}
	.st11{fill:#F7DB9B;}
	.st12{fill:#F9A287;}
	.st13{fill:#FFC8BB;}
	.st14{fill:#52B8D9;}
	.st15{fill:#DB785A;}
	.st16{fill:#EDCB85;}
	.st17{fill:#DBAB56;}
	.st18{fill:#D3A553;}
	.st19{fill:#FFFFFF;}
</style>
<g>
	<path class="st15" d="M57.315,6.61h-3.88c0.174,0.001,0.347,0.019,0.511,0.048c0.12,0.02,0.24,0.04,0.36,0.08
		c0.11,0.03,0.22,0.07,0.32,0.12c0.76,0.34,1.35,0.98,1.63,1.77c0.1,0.3,0.16,0.64,0.16,0.98v32.829c0,1.66-1.34,3.001-3.001,3.001
		h-3.544v0.003h7.444c1.98,0,3.584-1.605,3.584-3.584V10.194C60.899,8.215,59.295,6.61,57.315,6.61z"/>
	<path class="st1" d="M57.315,45.941h-7.444v-1h7.444c1.7,0,3.084-1.384,3.084-3.085V10.194c0-1.7-1.384-3.084-3.084-3.084h-7.444
		v-1h7.444c2.252,0,4.084,1.832,4.084,4.084v31.662C61.399,44.109,59.567,45.941,57.315,45.941z"/>
	<path class="st12" d="M56.256,8.629c-0.28-0.79-0.87-1.43-1.63-1.77c-0.1-0.05-0.21-0.09-0.32-0.12c-0.12-0.04-0.24-0.06-0.36-0.08
		c-0.17-0.03-0.35-0.05-0.53-0.05H6.103c-1.66,0-3.001,1.34-3.001,3.001v32.829c0,0.1,0.01,0.21,0.02,0.31
		c0.01,0.14,0.03,0.28,0.07,0.42c0.05,0.23,0.14,0.45,0.25,0.65c0.14,0.28,0.33,0.53,0.55,0.74c0.155,0.158,0.329,0.291,0.514,0.41
		c0.032,0.02,0.065,0.035,0.098,0.054c0.176,0.104,0.362,0.187,0.559,0.253c0.003,0.001,0.006,0.003,0.009,0.004
		c0,0,0-0.001,0-0.001c0.294,0.097,0.602,0.161,0.931,0.161h47.313c1.66,0,3.001-1.34,3.001-3.001V9.609
		C56.417,9.269,56.356,8.929,56.256,8.629z"/>
	<path class="st13" d="M56.257,8.629c-0.28-0.07-0.63-0.11-0.93-0.11H6.803c-0.99,0-1.8,0.8-1.8,1.79v34.039
		c0,0.33,0.07,0.64,0.17,0.93c-0.45-0.14-0.86-0.39-1.18-0.72c-0.22-0.22-0.41-0.46-0.55-0.74c-0.11-0.2-0.19-0.42-0.25-0.65
		c-0.04-0.14-0.06-0.28-0.07-0.42c-0.01-0.1-0.02-0.21-0.02-0.31V9.609c0-1.66,1.34-3.001,3.001-3.001h47.313
		c0.18,0,0.36,0.02,0.53,0.05c0.12,0.02,0.24,0.04,0.36,0.08c0.11,0.03,0.22,0.07,0.32,0.12C55.386,7.198,55.976,7.839,56.257,8.629
		z"/>
	<path class="st1" d="M53.418,45.941H6.102c-1.931,0-3.501-1.57-3.501-3.501V9.61c0-1.93,1.57-3.5,3.501-3.5h47.316
		c1.931,0,3.501,1.57,3.501,3.5v32.83C56.919,44.371,55.349,45.941,53.418,45.941z M6.102,7.11c-1.379,0-2.501,1.121-2.501,2.5
		v32.83c0,1.379,1.122,2.501,2.501,2.501h47.316c1.379,0,2.501-1.122,2.501-2.501V9.61c0-1.379-1.122-2.5-2.501-2.5H6.102z"/>
	<rect id="XMLID_61_" x="7.507" y="10.941" class="st0" width="44.805" height="27.709"/>
	<polygon class="st2" points="9.411,12.868 52.312,12.868 52.312,10.941 7.507,10.941 7.507,38.65 9.411,38.65 	"/>
	<path class="st1" d="M52.312,39.15H7.506c-0.276,0-0.5-0.224-0.5-0.5V10.941c0-0.276,0.224-0.5,0.5-0.5h44.805
		c0.276,0,0.5,0.224,0.5,0.5V38.65C52.812,38.927,52.588,39.15,52.312,39.15z M8.006,38.15h43.805V11.441H8.006V38.15z"/>
	<rect id="XMLID_59_" x="25.421" y="45.441" class="st11" width="11.251" height="7.617"/>
	<rect id="XMLID_58_" x="25.421" y="45.441" class="st16" width="11.251" height="1.955"/>
	<rect x="32.535" y="45.444" class="st8" width="4.142" height="7.611"/>
	<rect x="32.535" y="45.444" class="st17" width="4.142" height="1.955"/>
	<path class="st1" d="M36.673,53.558H25.421c-0.276,0-0.5-0.224-0.5-0.5v-7.616c0-0.276,0.224-0.5,0.5-0.5h11.251
		c0.276,0,0.5,0.224,0.5,0.5v7.616C37.173,53.334,36.949,53.558,36.673,53.558z M25.921,52.558h10.251v-6.616H25.921V52.558z"/>
	<rect x="32.038" y="45.441" class="st1" width="1" height="7.616"/>
	<path class="st12" d="M41.422,54.481c-0.17-0.57-0.58-1.02-1.11-1.26c-0.15-0.07-0.32-0.11-0.48-0.13
		c-0.11-0.02-0.21-0.03-0.32-0.03H19.617c-1.11,0-2.001,0.89-2.001,2.001v2.331h23.896v-2.331
		C41.513,54.861,41.482,54.661,41.422,54.481z"/>
	<path class="st13" d="M41.423,54.481H19.957c-0.48,0-0.86,0.38-0.86,0.85v2.061h-1.48v-2.331c0-1.11,0.89-2.001,2.001-2.001h19.895
		c0.11,0,0.21,0.01,0.32,0.03c0.16,0.02,0.33,0.06,0.48,0.13C40.842,53.461,41.252,53.911,41.423,54.481z"/>
	<path class="st1" d="M41.508,57.889H17.612c-0.276,0-0.5-0.224-0.5-0.5v-2.33c0-1.379,1.122-2.501,2.5-2.501h19.896
		c1.379,0,2.5,1.122,2.5,2.501v2.33C42.008,57.665,41.784,57.889,41.508,57.889z M18.112,56.889h22.896v-1.83
		c0-0.828-0.673-1.501-1.5-1.501H19.612c-0.827,0-1.5,0.673-1.5,1.501V56.889z"/>
	<path class="st15" d="M42.483,53.058h-2.975c1.105,0,2.001,0.896,2.001,2.001v2.331h2.975v-2.331
		C44.483,53.953,43.587,53.058,42.483,53.058z"/>
	<path class="st1" d="M44.483,57.889h-2.976c-0.276,0-0.5-0.224-0.5-0.5v-2.33c0-0.828-0.673-1.501-1.5-1.501
		c-0.276,0-0.5-0.224-0.5-0.5s0.224-0.5,0.5-0.5h2.975c1.379,0,2.501,1.122,2.501,2.501v2.33
		C44.983,57.665,44.76,57.889,44.483,57.889z M42.008,56.889h1.976v-1.83c0-0.828-0.673-1.501-1.501-1.501h-0.977
		c0.315,0.418,0.502,0.938,0.502,1.501V56.889z"/>
	<path class="st10" d="M22.76,30.686l-6.08-5.326c-0.209-0.183-0.328-0.447-0.328-0.724c0-0.277,0.119-0.541,0.328-0.724l6.08-5.327
		l1.269,1.447l-5.254,4.603l5.254,4.602L22.76,30.686z"/>
	<path class="st1" d="M22.806,31.391l-6.456-5.655c-0.317-0.277-0.499-0.679-0.499-1.1s0.182-0.822,0.499-1.1l6.456-5.656
		l1.928,2.199l-5.201,4.557l5.201,4.556L22.806,31.391z M22.713,19.29l-5.704,4.998c-0.1,0.088-0.158,0.215-0.158,0.348
		s0.058,0.26,0.158,0.348l5.704,4.997l0.609-0.695l-5.308-4.649l5.308-4.65L22.713,19.29z"/>
	<path class="st10" d="M37.059,30.686l6.08-5.326c0.209-0.183,0.328-0.447,0.328-0.724c0-0.277-0.119-0.541-0.328-0.724l-6.08-5.327
		l-1.269,1.447l5.254,4.603l-5.254,4.602L37.059,30.686z"/>
	<path class="st1" d="M37.012,31.391l-1.928-2.199l5.202-4.556l-5.202-4.557l1.928-2.199l6.456,5.656
		c0.317,0.276,0.499,0.678,0.499,1.1s-0.182,0.823-0.499,1.101L37.012,31.391z M36.496,29.285l0.609,0.695l5.704-4.997
		c0.1-0.088,0.157-0.214,0.157-0.348s-0.058-0.26-0.157-0.347l-5.704-4.999l-0.609,0.695l5.308,4.65L36.496,29.285z"/>
	
		<rect x="21.307" y="23.834" transform="matrix(0.4836 -0.8753 0.8753 0.4836 -6.3274 38.8667)" class="st10" width="16.934" height="1.924"/>
	<path class="st1" d="M26.721,33.353l-2.56-1.413l8.666-15.701l2.561,1.413L26.721,33.353z M25.52,31.547l0.809,0.446l7.7-13.949
		l-0.809-0.446L25.52,31.547z"/>
	<circle class="st11" cx="52.172" cy="42.181" r="8.705"/>
	<path class="st1" d="M52.172,51.386c-5.076,0-9.205-4.129-9.205-9.205s4.129-9.205,9.205-9.205s9.205,4.129,9.205,9.205
		S57.248,51.386,52.172,51.386z M52.172,33.976c-4.524,0-8.205,3.681-8.205,8.205s3.681,8.205,8.205,8.205s8.205-3.681,8.205-8.205
		S56.696,33.976,52.172,33.976z"/>
	<polygon class="st0" points="56.557,39.722 55.093,38.258 50.999,42.352 49.251,40.604 47.787,42.068 50.997,45.279 51,45.276 
		51.002,45.277 	"/>
	<path class="st1" d="M51.002,45.777c-0.014,0-0.026-0.001-0.04-0.002c-0.116-0.008-0.23-0.055-0.318-0.144l-3.211-3.21
		c-0.094-0.094-0.146-0.221-0.146-0.354s0.053-0.26,0.146-0.354l1.465-1.465c0.195-0.195,0.512-0.195,0.707,0l1.395,1.395l3.74-3.74
		c0.094-0.094,0.221-0.146,0.354-0.146l0,0c0.133,0,0.26,0.053,0.354,0.146l1.464,1.465c0.195,0.195,0.195,0.512,0,0.707
		l-5.555,5.555C51.258,45.729,51.13,45.777,51.002,45.777z M48.493,42.068l2.506,2.505l4.851-4.851l-0.757-0.758l-3.74,3.74
		c-0.195,0.195-0.512,0.195-0.707,0l-1.395-1.395L48.493,42.068z"/>
</g>
</svg>
