<?xml version="1.0" encoding="iso-8859-1"?>
<!-- Generator: Adobe Illustrator 22.0.1, SVG Export Plug-In . SVG Version: 6.00 Build 0)  -->
<svg version="1.1" id="Layer_1" xmlns="http://www.w3.org/2000/svg" xmlns:xlink="http://www.w3.org/1999/xlink" x="0px" y="0px"
	 viewBox="0 0 64 64" style="enable-background:new 0 0 64 64;" xml:space="preserve">
<style type="text/css">
	.st0{fill:#F8F3F3;}
	.st1{fill:#63312D;}
	.st2{fill:#E1DDDD;}
	.st3{fill:#84DBFF;}
	.st4{fill:#CAF4FF;}
	.st5{fill:#52BADB;}
	.st6{fill:#F9DD9D;}
	.st7{fill:#FFEECF;}
	.st8{fill:#EFC36A;}
	.st9{fill:#F7A085;}
	.st10{fill:#82D9FF;}
	.st11{fill:#F7DB9B;}
	.st12{fill:#F9A287;}
	.st13{fill:#FFC8BB;}
	.st14{fill:#52B8D9;}
	.st15{fill:#DB785A;}
	.st16{fill:#EDCB85;}
	.st17{fill:#DBAB56;}
	.st18{fill:#D3A553;}
	.st19{fill:#FFFFFF;}
</style>
<g>
	<path class="st3" d="M41.102,20.102c-0.489,0-0.955,0.08-1.426,0.144c0.033-0.375,0.113-0.736,0.113-1.12
		c0-7.189-5.828-13.016-13.016-13.016s-13.016,5.828-13.016,13.016c0,1.328,0.257,2.583,0.627,3.79
		c-0.602-0.121-1.223-0.187-1.86-0.187c-5.199,0-9.414,4.215-9.414,9.414s4.215,9.414,9.414,9.414h28.58
		c5.924,0,10.727-4.803,10.727-10.727C51.829,24.905,47.027,20.102,41.102,20.102z"/>
	<g>
		<path class="st19" d="M41.69,20.132c-0.004,0.038-0.011,0.076-0.014,0.114c0.195-0.026,0.389-0.054,0.584-0.079
			C42.072,20.147,41.88,20.142,41.69,20.132z"/>
		<path class="st4" d="M14.522,22.729c0.637,0,1.259,0.067,1.86,0.188c-0.369-1.207-0.627-2.462-0.627-3.79
			c0-6.851,5.296-12.454,12.016-12.966c-0.331-0.025-0.662-0.05-1-0.05c-7.189,0-13.016,5.828-13.016,13.016
			c0,1.263,0.237,2.459,0.577,3.612C14.397,22.737,14.458,22.729,14.522,22.729z"/>
		<path class="st4" d="M5.108,32.143c0-4.858,3.681-8.854,8.405-9.358c-0.326-0.035-0.656-0.056-0.991-0.056
			c-5.199,0-9.414,4.215-9.414,9.414c0,5.199,4.215,9.414,9.414,9.414h2C9.323,41.557,5.108,37.342,5.108,32.143z"/>
	</g>
	<path class="st1" d="M41.103,42.057h-28.58c-5.467,0-9.914-4.447-9.914-9.914c0-5.852,5.14-10.552,11.079-9.844
		c-0.293-1.13-0.432-2.154-0.432-3.173c0-7.452,6.063-13.516,13.517-13.516s13.517,6.063,13.517,13.516
		c0,0.183-0.016,0.36-0.037,0.537c0.274-0.034,0.557-0.061,0.851-0.061c6.19,0,11.227,5.036,11.227,11.227
		S47.293,42.057,41.103,42.057z M12.522,23.229c-4.915,0-8.914,3.999-8.914,8.914s3.999,8.914,8.914,8.914h28.58
		c5.639,0,10.227-4.588,10.227-10.228c0-5.639-4.588-10.227-10.227-10.227c-0.369,0-0.73,0.051-1.112,0.104l-0.248,0.034
		c-0.152,0.021-0.301-0.028-0.411-0.133c-0.11-0.105-0.166-0.254-0.153-0.405c0.013-0.149,0.032-0.297,0.053-0.444
		c0.028-0.208,0.059-0.416,0.059-0.633c0-6.901-5.615-12.516-12.517-12.516s-12.517,5.614-12.517,12.516
		c0,1.141,0.192,2.299,0.604,3.644c0.052,0.168,0.012,0.352-0.106,0.481c-0.118,0.131-0.296,0.191-0.469,0.155
		C13.694,23.288,13.101,23.229,12.522,23.229z"/>
	<path class="st5" d="M50.165,20.102c-0.489,0-0.955,0.08-1.426,0.144c0.033-0.375,0.113-0.736,0.113-1.12
		c0-7.189-5.828-13.016-13.016-13.016h-9.062c7.189,0,13.016,5.828,13.016,13.016c0,0.384-0.08,0.744-0.113,1.12
		c0.471-0.063,0.938-0.144,1.426-0.144c5.924,0,10.727,4.803,10.727,10.727c0,5.924-4.803,10.727-10.727,10.727h9.062
		c5.924,0,10.727-4.803,10.727-10.727C60.892,24.905,56.089,20.102,50.165,20.102z"/>
	<path class="st1" d="M50.164,42.057h-9.063c-0.276,0-0.5-0.224-0.5-0.5s0.224-0.5,0.5-0.5c5.64,0,10.228-4.588,10.228-10.228
		c0-5.639-4.588-10.227-10.228-10.227c-0.369,0-0.729,0.051-1.111,0.104l-0.248,0.034c-0.152,0.021-0.301-0.028-0.411-0.133
		c-0.11-0.105-0.166-0.254-0.153-0.405c0.013-0.149,0.032-0.297,0.053-0.444c0.028-0.208,0.059-0.416,0.059-0.633
		c0-6.901-5.615-12.516-12.517-12.516c-0.276,0-0.5-0.224-0.5-0.5s0.224-0.5,0.5-0.5h9.063c7.453,0,13.517,6.063,13.517,13.516
		c0,0.183-0.016,0.36-0.037,0.537c0.274-0.034,0.556-0.061,0.85-0.061c6.19,0,11.228,5.036,11.228,11.227
		S56.354,42.057,50.164,42.057z M45.732,41.057h4.432c5.64,0,10.228-4.588,10.228-10.228c0-5.639-4.588-10.227-10.228-10.227
		c-0.37,0-0.731,0.051-1.114,0.105l-0.245,0.033c-0.146,0.021-0.301-0.028-0.411-0.133c-0.11-0.105-0.166-0.254-0.153-0.405
		c0.013-0.149,0.032-0.297,0.053-0.444c0.028-0.208,0.059-0.416,0.059-0.633c0-6.901-5.615-12.516-12.517-12.516h-3.96
		c4.932,2.018,8.414,6.867,8.414,12.516c0,0.183-0.016,0.36-0.037,0.537c0.273-0.034,0.556-0.061,0.85-0.061
		c6.19,0,11.228,5.036,11.228,11.227C52.329,35.37,49.62,39.29,45.732,41.057z"/>
	<circle class="st19" cx="27.67" cy="43.909" r="13.981"/>
	<path class="st1" d="M27.67,58.39c-7.984,0-14.48-6.496-14.48-14.48s6.496-14.48,14.48-14.48s14.48,6.496,14.48,14.48
		S35.654,58.39,27.67,58.39z M27.67,30.429c-7.434,0-13.48,6.047-13.48,13.48s6.047,13.48,13.48,13.48s13.48-6.047,13.48-13.48
		S35.104,30.429,27.67,30.429z"/>
	<path class="st6" d="M27.371,35.361c-3.222,0.149-5.862,2.819-5.978,6.042c-0.068,1.872,0.686,3.568,1.928,4.759
		c0.929,0.891,1.474,2.11,1.474,3.397v0.257h5.751V49.56c0-1.301,0.567-2.519,1.5-3.425c1.175-1.14,1.905-2.734,1.905-4.501
		C33.951,38.067,30.976,35.193,27.371,35.361z"/>
	<path class="st1" d="M30.546,50.316h-5.752c-0.276,0-0.5-0.224-0.5-0.5v-0.258c0-1.125-0.481-2.232-1.319-3.036
		c-1.393-1.336-2.151-3.208-2.082-5.138c0.126-3.496,2.962-6.362,6.455-6.523l0,0c1.884-0.097,3.651,0.576,5.005,1.868
		s2.099,3.034,2.099,4.905c0,1.846-0.73,3.572-2.057,4.859c-0.87,0.845-1.349,1.934-1.349,3.066v0.256
		C31.046,50.093,30.822,50.316,30.546,50.316z M25.288,49.316h4.764c0.063-1.316,0.643-2.565,1.646-3.539
		c1.131-1.099,1.754-2.569,1.754-4.143c0-1.596-0.636-3.08-1.789-4.183c-1.153-1.101-2.657-1.659-4.268-1.593l0,0
		C24.416,35.998,22,38.44,21.893,41.42c-0.06,1.646,0.587,3.242,1.773,4.38C24.641,46.734,25.224,48.005,25.288,49.316z"/>
	<path class="st3" d="M29.049,53.737h-2.758c-1.105,0-2-0.895-2-2v-1.92h6.758v1.92C31.049,52.841,30.154,53.737,29.049,53.737z"/>
	<path class="st1" d="M29.049,54.236h-2.758c-1.379,0-2.5-1.121-2.5-2.5v-1.92c0-0.276,0.224-0.5,0.5-0.5h6.758
		c0.276,0,0.5,0.224,0.5,0.5v1.92C31.549,53.115,30.428,54.236,29.049,54.236z M24.791,50.316v1.42c0,0.827,0.673,1.5,1.5,1.5h2.758
		c0.827,0,1.5-0.673,1.5-1.5v-1.42H24.791z"/>
	<rect x="26.206" y="53.737" class="st6" width="2.928" height="1.934"/>
	<path class="st1" d="M29.134,56.171h-2.928c-0.276,0-0.5-0.224-0.5-0.5v-1.935c0-0.276,0.224-0.5,0.5-0.5h2.928
		c0.276,0,0.5,0.224,0.5,0.5v1.935C29.634,55.947,29.41,56.171,29.134,56.171z M26.706,55.171h1.928v-0.935h-1.928V55.171z"/>
	<path class="st1" d="M29.111,49.816h-1v-4.052c0-0.128,0.05-0.252,0.138-0.345l1.25-1.313l0.725,0.689l-1.112,1.168V49.816z"/>
	<path class="st1" d="M27.229,49.816h-1v-3.852l-1.112-1.168l0.725-0.689l1.25,1.313c0.088,0.093,0.138,0.217,0.138,0.345V49.816z"
		/>
	<rect x="27.17" y="31.596" class="st1" width="1" height="2"/>
	<polygon class="st1" points="33.61,36.116 32.901,35.411 34.311,33.991 35.02,34.696 	"/>
	<rect x="35.558" y="40.627" transform="matrix(1 -0.0078 0.0078 1 -0.3202 0.2869)" class="st1" width="2" height="1"/>
	<polygon class="st1" points="21.729,36.116 20.32,34.696 21.029,33.991 22.438,35.411 	"/>
	<rect x="18.283" y="40.127" transform="matrix(0.0073 -1 1 0.0073 -22.4807 59.6089)" class="st1" width="1" height="2"/>
</g>
</svg>
