<?xml version="1.0" encoding="utf-8"?>
<!-- Generator: Adobe Illustrator 21.1.0, SVG Export Plug-In . SVG Version: 6.00 Build 0)  -->
<svg version="1.1" id="Icon_Set" xmlns="http://www.w3.org/2000/svg" xmlns:xlink="http://www.w3.org/1999/xlink" x="0px" y="0px"
	 viewBox="0 0 64 64" style="enable-background:new 0 0 64 64;" xml:space="preserve">
<style type="text/css">
	.st0{fill:#263238;}
	.st1{fill:#FFD740;}
	.st2{fill:#FF5252;}
	.st3{fill:#40C4FF;}
	.st4{fill:#4DB6AC;}
	.st5{fill:#FFFFFF;}
	.st6{fill:#FFD345;}
</style>
<g>
	<g>
		<path class="st0" d="M32,45.5c-3.045,0-5.431-5.93-5.431-13.5S28.955,18.5,32,18.5s5.431,5.93,5.431,13.5S35.045,45.5,32,45.5z
			 M32,19.5c-2.14,0-4.431,5.023-4.431,12.5S29.86,44.5,32,44.5s4.431-5.023,4.431-12.5S34.14,19.5,32,19.5z"/>
	</g>
	<g>
		<path class="st0" d="M40.661,40.173c-3.072,0-7.479-1.488-11.368-3.642c-5.146-2.849-8.94-6.441-9.667-9.153
			c-0.221-0.825-0.152-1.544,0.204-2.136c1.699-2.822,8.899-1.083,14.877,2.227c5.146,2.849,8.94,6.441,9.667,9.153
			c0.221,0.825,0.152,1.544-0.204,2.136C43.576,39.744,42.311,40.173,40.661,40.173z M23.36,24.832
			c-1.361,0-2.308,0.318-2.673,0.926c-0.212,0.351-0.243,0.809-0.096,1.362c0.649,2.424,4.341,5.855,9.186,8.537
			c6.67,3.692,12.489,4.326,13.535,2.586c0.212-0.351,0.243-0.809,0.096-1.362c-0.649-2.424-4.341-5.855-9.186-8.537l0,0
			C29.881,25.94,25.899,24.832,23.36,24.832z"/>
	</g>
	<g>
		<path class="st0" d="M23.339,40.173c-1.65,0-2.915-0.429-3.509-1.415c-0.356-0.592-0.425-1.311-0.204-2.136
			c0.727-2.711,4.521-6.304,9.667-9.153l0,0c5.98-3.311,13.179-5.047,14.877-2.227c0.356,0.592,0.425,1.311,0.204,2.136
			c-0.727,2.711-4.521,6.304-9.667,9.153C30.817,38.685,26.41,40.172,23.339,40.173z M40.64,24.832
			c-2.539,0-6.52,1.107-10.862,3.512l0,0c-4.845,2.682-8.536,6.112-9.186,8.537c-0.147,0.553-0.116,1.011,0.096,1.362
			c1.047,1.741,6.866,1.107,13.535-2.586c4.845-2.682,8.536-6.112,9.186-8.537c0.147-0.553,0.116-1.011-0.096-1.362
			C42.947,25.15,42,24.832,40.64,24.832z M29.535,27.906h0.01H29.535z"/>
	</g>
	<g>
		<path class="st4" d="M49,18c-0.552,0-1-0.448-1-1V4h-1c-0.552,0-1,0.448-1,1v14c0,0.552,0.448,1,1,1h11c0.552,0,1-0.448,1-1v-1H49
			z"/>
	</g>
	<g>
		<path class="st3" d="M17,14.5H5c-0.552,0-1-0.448-1-1V6c0-0.552,0.448-1,1-1h12c0.552,0,1,0.448,1,1v7.5
			C18,14.052,17.552,14.5,17,14.5z"/>
		<path class="st0" d="M17,15H5c-0.827,0-1.5-0.673-1.5-1.5V6c0-0.827,0.673-1.5,1.5-1.5h12c0.827,0,1.5,0.673,1.5,1.5v7.5
			C18.5,14.327,17.827,15,17,15z M5,5.5C4.725,5.5,4.5,5.724,4.5,6v7.5C4.5,13.776,4.725,14,5,14h12c0.275,0,0.5-0.224,0.5-0.5V6
			c0-0.276-0.225-0.5-0.5-0.5H5z"/>
	</g>
	<g>
		<path class="st0" d="M19,18H3c-0.827,0-1.5-0.673-1.5-1.5v-1C1.5,14.673,2.173,14,3,14h16c0.827,0,1.5,0.673,1.5,1.5v1
			C20.5,17.327,19.827,18,19,18z M3,15c-0.275,0-0.5,0.224-0.5,0.5v1C2.5,16.776,2.725,17,3,17h16c0.275,0,0.5-0.224,0.5-0.5v-1
			c0-0.276-0.225-0.5-0.5-0.5H3z"/>
	</g>
	<g>
		<path class="st0" d="M60,18.5H49c-0.827,0-1.5-0.673-1.5-1.5V3c0-0.827,0.673-1.5,1.5-1.5h11c0.827,0,1.5,0.673,1.5,1.5v14
			C61.5,17.827,60.827,18.5,60,18.5z M49,2.5c-0.275,0-0.5,0.224-0.5,0.5v14c0,0.276,0.225,0.5,0.5,0.5h11
			c0.275,0,0.5-0.224,0.5-0.5V3c0-0.276-0.225-0.5-0.5-0.5H49z"/>
	</g>
	<g>
		<path class="st0" d="M57.75,7.5h-6.5c-0.276,0-0.5-0.224-0.5-0.5s0.224-0.5,0.5-0.5h6.5c0.276,0,0.5,0.224,0.5,0.5
			S58.026,7.5,57.75,7.5z"/>
	</g>
	<g>
		<path class="st0" d="M57.75,10.5h-6.5c-0.276,0-0.5-0.224-0.5-0.5s0.224-0.5,0.5-0.5h6.5c0.276,0,0.5,0.224,0.5,0.5
			S58.026,10.5,57.75,10.5z"/>
	</g>
	<g>
		<path class="st0" d="M57.75,13.5h-6.5c-0.276,0-0.5-0.224-0.5-0.5s0.224-0.5,0.5-0.5h6.5c0.276,0,0.5,0.224,0.5,0.5
			S58.026,13.5,57.75,13.5z"/>
	</g>
	<g>
		<path class="st1" d="M61,62H48c-0.552,0-1-0.448-1-1v-4c0-0.552,0.448-1,1-1h13c0.552,0,1,0.448,1,1v4C62,61.552,61.552,62,61,62z
			"/>
		<path class="st0" d="M61,62.5H48c-0.827,0-1.5-0.673-1.5-1.5v-4c0-0.827,0.673-1.5,1.5-1.5h13c0.827,0,1.5,0.673,1.5,1.5v4
			C62.5,61.827,61.827,62.5,61,62.5z M48,56.5c-0.275,0-0.5,0.224-0.5,0.5v4c0,0.276,0.225,0.5,0.5,0.5h13
			c0.275,0,0.5-0.224,0.5-0.5v-4c0-0.276-0.225-0.5-0.5-0.5H48z"/>
	</g>
	<g>
		<path class="st0" d="M59,59.5h-4.5c-0.276,0-0.5-0.224-0.5-0.5s0.224-0.5,0.5-0.5H59c0.276,0,0.5,0.224,0.5,0.5
			S59.276,59.5,59,59.5z"/>
	</g>
	<g>
		<path class="st1" d="M61,56H48c-0.552,0-1-0.448-1-1v-4c0-0.552,0.448-1,1-1h13c0.552,0,1,0.448,1,1v4C62,55.552,61.552,56,61,56z
			"/>
		<path class="st0" d="M61,56.5H48c-0.827,0-1.5-0.673-1.5-1.5v-4c0-0.827,0.673-1.5,1.5-1.5h13c0.827,0,1.5,0.673,1.5,1.5v4
			C62.5,55.827,61.827,56.5,61,56.5z M48,50.5c-0.275,0-0.5,0.224-0.5,0.5v4c0,0.276,0.225,0.5,0.5,0.5h13
			c0.275,0,0.5-0.224,0.5-0.5v-4c0-0.276-0.225-0.5-0.5-0.5H48z"/>
	</g>
	<g>
		<path class="st0" d="M59,53.5h-4.5c-0.276,0-0.5-0.224-0.5-0.5s0.224-0.5,0.5-0.5H59c0.276,0,0.5,0.224,0.5,0.5
			S59.276,53.5,59,53.5z"/>
	</g>
	<g>
		<rect x="2" y="49" class="st2" width="4" height="13"/>
		<path class="st0" d="M6,62.5H2c-0.276,0-0.5-0.224-0.5-0.5V49c0-0.276,0.224-0.5,0.5-0.5h4c0.276,0,0.5,0.224,0.5,0.5v13
			C6.5,62.276,6.276,62.5,6,62.5z M2.5,61.5h3v-12h-3V61.5z"/>
	</g>
	<g>
		<path class="st0" d="M13,62.5H9c-0.276,0-0.5-0.224-0.5-0.5V52c0-0.276,0.224-0.5,0.5-0.5h4c0.276,0,0.5,0.224,0.5,0.5v10
			C13.5,62.276,13.276,62.5,13,62.5z M9.5,61.5h3v-9h-3V61.5z"/>
	</g>
	<g>
		<path class="st0" d="M20,62.5h-4c-0.276,0-0.5-0.224-0.5-0.5v-6c0-0.276,0.224-0.5,0.5-0.5h4c0.276,0,0.5,0.224,0.5,0.5v6
			C20.5,62.276,20.276,62.5,20,62.5z M16.5,61.5h3v-5h-3V61.5z"/>
	</g>
	<g>
		<path class="st0" d="M25.5,10.5h-1c-0.276,0-0.5-0.224-0.5-0.5s0.224-0.5,0.5-0.5h1c0.276,0,0.5,0.224,0.5,0.5
			S25.776,10.5,25.5,10.5z"/>
	</g>
	<g>
		<path class="st0" d="M39.5,10.5h-12c-0.276,0-0.5-0.224-0.5-0.5s0.224-0.5,0.5-0.5h12c0.276,0,0.5,0.224,0.5,0.5
			S39.776,10.5,39.5,10.5z"/>
	</g>
	<g>
		<path class="st0" d="M39.5,57.5h-1c-0.276,0-0.5-0.224-0.5-0.5s0.224-0.5,0.5-0.5h1c0.276,0,0.5,0.224,0.5,0.5
			S39.776,57.5,39.5,57.5z"/>
	</g>
	<g>
		<path class="st0" d="M36.5,57.5h-12c-0.276,0-0.5-0.224-0.5-0.5s0.224-0.5,0.5-0.5h12c0.276,0,0.5,0.224,0.5,0.5
			S36.776,57.5,36.5,57.5z"/>
	</g>
	<g>
		<path class="st0" d="M8.5,41.5C8.224,41.5,8,41.276,8,41v-1c0-0.276,0.224-0.5,0.5-0.5S9,39.724,9,40v1
			C9,41.276,8.776,41.5,8.5,41.5z"/>
	</g>
	<g>
		<path class="st0" d="M8.5,38.5C8.224,38.5,8,38.276,8,38V26c0-0.276,0.224-0.5,0.5-0.5S9,25.724,9,26v12
			C9,38.276,8.776,38.5,8.5,38.5z"/>
	</g>
	<g>
		<path class="st0" d="M55.5,27.5c-0.276,0-0.5-0.224-0.5-0.5v-1c0-0.276,0.224-0.5,0.5-0.5S56,25.724,56,26v1
			C56,27.276,55.776,27.5,55.5,27.5z"/>
	</g>
	<g>
		<path class="st0" d="M55.5,41.5c-0.276,0-0.5-0.224-0.5-0.5V29c0-0.276,0.224-0.5,0.5-0.5S56,28.724,56,29v12
			C56,41.276,55.776,41.5,55.5,41.5z"/>
	</g>
</g>
</svg>
