<?xml version="1.0" encoding="utf-8"?>
<!-- Generator: Adobe Illustrator 22.0.0, SVG Export Plug-In . SVG Version: 6.00 Build 0)  -->
<svg version="1.1" id="Layer_1" xmlns="http://www.w3.org/2000/svg" xmlns:xlink="http://www.w3.org/1999/xlink" x="0px" y="0px"
	 viewBox="0 0 500 500" style="enable-background:new 0 0 500 500;" xml:space="preserve">
<style type="text/css">
	.st0{fill:#83E1E5;}
	.st1{fill:#ECF4F7;}
	.st2{fill:#AAB1BA;}
	.st3{fill:#FDDF7F;}
	.st4{fill:#1C1D21;}
	.st5{fill:none;stroke:#1C1D21;stroke-width:10;stroke-linecap:round;stroke-linejoin:round;stroke-miterlimit:10;}
</style>
<g>
	<path class="st1" d="M423.221,357.42H76.779C58.123,357.42,43,342.296,43,323.641V115.194c0-18.656,15.123-33.779,33.779-33.779
		h346.442c18.656,0,33.779,15.123,33.779,33.779v208.447C457,342.296,441.877,357.42,423.221,357.42z"/>
</g>
<g>
	<path class="st1" d="M427.443,495H72.557C56.233,495,43,481.767,43,465.443v-53.919c0-16.324,13.233-29.557,29.557-29.557h354.887
		c16.324,0,29.557,13.233,29.557,29.557v53.919C457,481.767,443.767,495,427.443,495z"/>
</g>
<g>
	<path class="st0" d="M68.347,314.997V123.837c0-9.444,7.656-17.101,17.101-17.101h329.105c9.444,0,17.101,7.656,17.101,17.101
		v191.161c0,9.444-7.656,17.101-17.101,17.101H85.448C76.003,332.098,68.347,324.442,68.347,314.997z"/>
</g>
<g>
	<rect x="138.051" y="407.289" class="st0" width="21.122" height="24.861"/>
</g>
<g>
	<rect x="171.847" y="407.289" class="st0" width="21.122" height="24.861"/>
</g>
<g>
	<rect x="205.643" y="407.289" class="st0" width="21.122" height="24.861"/>
</g>
<g>
	<rect x="104.255" y="407.289" class="st0" width="21.122" height="24.861"/>
</g>
<g>
	<path class="st0" d="M91.582,407.289H79.507c-6.163,0-11.16,4.991-11.16,11.148v13.713h23.235V407.289z"/>
</g>
<g>
	<rect x="239.439" y="407.289" class="st0" width="21.122" height="24.861"/>
</g>
<g>
	<rect x="374.622" y="407.289" class="st0" width="21.122" height="24.861"/>
</g>
<g>
	<rect x="340.827" y="407.289" class="st0" width="21.122" height="24.861"/>
</g>
<g>
	<path class="st0" d="M68.347,444.811v13.719c0,6.157,4.996,11.148,11.16,11.148h12.075v-24.867H68.347z"/>
</g>
<g>
	<path class="st0" d="M431.653,432.15v-13.713c0-6.157-4.996-11.148-11.16-11.148h-12.075v24.861H431.653z"/>
</g>
<g>
	<rect x="273.235" y="407.289" class="st0" width="21.122" height="24.861"/>
</g>
<g>
	<rect x="307.031" y="407.289" class="st0" width="21.122" height="24.861"/>
</g>
<g>
	<rect x="340.827" y="444.811" class="st0" width="21.122" height="24.867"/>
</g>
<g>
	<rect x="374.622" y="444.811" class="st0" width="21.122" height="24.867"/>
</g>
<g>
	<rect x="307.031" y="444.811" class="st0" width="21.122" height="24.867"/>
</g>
<g>
	<path class="st0" d="M408.418,469.678h12.075c6.163,0,11.16-4.991,11.16-11.148v-13.719h-23.235V469.678z"/>
</g>
<g>
	<rect x="104.255" y="444.811" class="st0" width="21.122" height="24.867"/>
</g>
<g>
	<rect x="138.051" y="444.811" class="st0" width="21.122" height="24.867"/>
</g>
<g>
	<rect x="171.847" y="444.811" class="st0" width="21.122" height="24.867"/>
</g>
<g>
	<polygon class="st0" points="260.561,444.811 249.578,444.811 239.439,444.811 205.643,444.811 205.643,469.678 239.439,469.678 
		249.578,469.678 260.561,469.678 294.357,469.678 294.357,444.811 	"/>
</g>
<g>
	<path class="st3" d="M420.41,54.801h-65.901c-14.613,0-26.458,11.834-26.458,26.432v0c0,14.598,11.846,26.432,26.458,26.432h65.901
		c8.043,0,15.77,3.123,21.551,8.708l29.415,28.422V17.671l-29.415,28.422C436.181,51.679,428.453,54.801,420.41,54.801z"/>
</g>
<g>
	<path class="st1" d="M379.792,163.833h-0.011c-5.868,0-10.625-4.757-10.625-10.625v-45.542h21.261v45.542
		C390.417,159.076,385.66,163.833,379.792,163.833z"/>
</g>
<g>
	<path class="st1" d="M471.376,57.633c13.047,0,23.624,10.566,23.624,23.6s-10.577,23.6-23.624,23.6V57.633z"/>
</g>
<g>
	<path class="st3" d="M79.59,54.801h65.901c14.613,0,26.458,11.834,26.458,26.432v0c0,14.598-11.846,26.432-26.458,26.432H79.59
		c-8.043,0-15.77,3.123-21.551,8.708l-29.415,28.422V17.671l29.415,28.422C63.819,51.679,71.547,54.801,79.59,54.801z"/>
</g>
<g>
	<path class="st1" d="M120.208,163.833h0.011c5.868,0,10.625-4.757,10.625-10.625v-45.542h-21.261v45.542
		C109.583,159.076,114.34,163.833,120.208,163.833z"/>
</g>
<g>
	<path class="st1" d="M28.624,57.633C15.577,57.633,5,68.199,5,81.233s10.577,23.6,23.624,23.6V57.633z"/>
</g>
<g>
	<path class="st3" d="M266.577,182.049L266.577,182.049c12.526,17.39,10.962,41.213-3.729,56.818L250,252.515l-12.848-13.647
		c-14.691-15.605-16.255-39.428-3.729-56.818l0,0H266.577z"/>
</g>
<g>
	<path class="st2" d="M269.371,182.049h-38.742c-1.633,0-2.958-1.324-2.958-2.958v-18.371c0-1.633,1.324-2.958,2.958-2.958h38.742
		c1.633,0,2.958,1.324,2.958,2.958v18.371C272.328,180.725,271.004,182.049,269.371,182.049z"/>
</g>
<g>
	<path class="st0" d="M283.547,157.763h-67.094v-54.059c0-32.833,10.043-64.881,28.783-91.848L250,5l4.764,6.856
		c18.74,26.967,28.783,59.015,28.783,91.848V157.763z"/>
</g>
<g>
	<ellipse class="st1" cx="250" cy="94.415" rx="14.201" ry="14.193"/>
</g>
<g>
	<path class="st3" d="M254.764,11.856L250,5l-4.764,6.856c-4.824,6.942-9.067,14.224-12.716,21.766
		c4.328,4.737,10.556,7.709,17.48,7.709c6.924,0,13.152-2.972,17.48-7.709C263.832,26.08,259.589,18.798,254.764,11.856z"/>
</g>
<g>
	<ellipse class="st3" cx="104.255" cy="235.926" rx="12.403" ry="12.391"/>
</g>
<g>
	<ellipse class="st3" cx="127.597" cy="203.293" rx="12.403" ry="12.391"/>
</g>
<g>
	<ellipse class="st3" cx="186.333" cy="142.284" rx="12.403" ry="12.391"/>
</g>
<g>
	<ellipse class="st3" cx="138.051" cy="296.269" rx="12.403" ry="12.391"/>
</g>
<g>
	<ellipse class="st3" cx="167.667" cy="264.906" rx="12.403" ry="12.391"/>
</g>
<g>
	<ellipse class="st3" cx="394.824" cy="235.926" rx="12.403" ry="12.391"/>
</g>
<g>
	<ellipse class="st3" cx="371.482" cy="203.293" rx="12.403" ry="12.391"/>
</g>
<g>
	<ellipse class="st3" cx="312.746" cy="142.284" rx="12.403" ry="12.391"/>
</g>
<g>
	<ellipse class="st3" cx="361.028" cy="296.269" rx="12.403" ry="12.391"/>
</g>
<g>
	<ellipse class="st3" cx="331.412" cy="264.906" rx="12.403" ry="12.391"/>
</g>
<path class="st4" d="M48,171.325c0,2.761-2.239,5-5,5s-5-2.239-5-5v-7.492c0-2.761,2.239-5,5-5s5,2.239,5,5V171.325z M43,184.307
	c-2.761,0-5,2.239-5,5v27.976c0,2.761,2.239,5,5,5s5-2.239,5-5v-27.976C48,186.545,45.761,184.307,43,184.307z M457,158.833
	c-2.761,0-5,2.239-5,5v159.825c0,15.859-12.918,28.762-28.796,28.762H76.796C60.918,352.419,48,339.517,48,323.658v-88.064
	c0-2.761-2.239-5-5-5s-5,2.239-5,5v88.064c0,21.373,17.404,38.762,38.796,38.762h346.408c21.392,0,38.796-17.389,38.796-38.762
	V163.833C462,161.071,459.761,158.833,457,158.833z M386.943,332.098c0,2.761,2.239,5,5,5h22.601
	c12.191,0,22.109-9.911,22.109-22.092v-21.734c0-2.761-2.239-5-5-5s-5,2.239-5,5v21.734c0,6.667-5.432,12.092-12.109,12.092h-22.601
	C389.182,327.098,386.943,329.337,386.943,332.098z M352.655,327.098c-2.761,0-5,2.239-5,5s2.239,5,5,5h6.336c2.761,0,5-2.239,5-5
	s-2.239-5-5-5H352.655z M374.623,327.098c-2.761,0-5,2.239-5,5s2.239,5,5,5h4.647c2.761,0,5-2.239,5-5s-2.239-5-5-5H374.623z
	 M462,411.524v53.919C462,484.498,446.498,500,427.443,500H72.557C53.502,500,38,484.498,38,465.443v-53.919
	c0-19.055,15.502-34.557,34.557-34.557h354.887C446.498,376.967,462,392.469,462,411.524z M452,411.524
	c0-13.541-11.016-24.557-24.557-24.557H72.557C59.016,386.967,48,397.983,48,411.524v53.919C48,478.984,59.016,490,72.557,490
	h354.887C440.984,490,452,478.984,452,465.443V411.524z M250,113.607c-10.587,0-19.201-8.61-19.201-19.193
	c0-10.583,8.613-19.192,19.201-19.192s19.201,8.61,19.201,19.192C269.201,104.998,260.587,113.607,250,113.607z M250,103.607
	c5.073,0,9.201-4.124,9.201-9.193s-4.127-9.192-9.201-9.192s-9.201,4.124-9.201,9.192S244.927,103.607,250,103.607z
	 M186.333,124.893c9.596,0,17.403,7.802,17.403,17.391c0,7.852-5.237,14.498-12.403,16.651v18.114h31.338v-14.286h-6.218
	c-2.761,0-5-2.239-5-5v-21.737c0-2.761,2.239-5,5-5s5,2.239,5,5v16.737h9.176h38.742h9.176v-49.06
	c0-21.569-4.408-42.589-12.869-62.051c-4.625,3.017-10.073,4.678-15.678,4.678s-11.053-1.661-15.678-4.678
	c-8.461,19.462-12.869,40.482-12.869,62.051v11.493c0,2.761-2.239,5-5,5s-5-2.239-5-5v-11.493c0-34.016,10.262-66.763,29.677-94.701
	l4.764-6.856C246.829,0.802,248.362,0,250,0s3.171,0.802,4.106,2.147l4.764,6.856c19.415,27.938,29.677,60.686,29.677,94.701v54.06
	c0,2.761-2.239,5-5,5h-6.218v14.286h30.417v-18.114c-7.165-2.153-12.403-8.799-12.403-16.651c0-9.589,7.807-17.391,17.403-17.391
	s17.403,7.802,17.403,17.391c0,7.852-5.238,14.498-12.403,16.651v18.114h13.667c2.761,0,5,2.239,5,5v16.243h18.408
	c2.155-7.158,8.805-12.391,16.662-12.391c9.596,0,17.403,7.801,17.403,17.391s-7.807,17.391-17.403,17.391
	c-7.857,0-14.506-5.232-16.662-12.391h-18.408v22.634h41.75c2.155-7.158,8.805-12.391,16.662-12.391
	c9.596,0,17.403,7.801,17.403,17.391s-7.807,17.391-17.403,17.391c-7.857,0-14.506-5.232-16.662-12.391h-12.134v38.692
	c7.165,2.153,12.403,8.799,12.403,16.651c0,9.589-7.807,17.391-17.403,17.391s-17.403-7.801-17.403-17.391
	c0-7.852,5.237-14.498,12.403-16.651v-38.692h-19.616v7.328c7.165,2.153,12.403,8.799,12.403,16.651
	c0,9.589-7.807,17.391-17.403,17.391s-17.403-7.801-17.403-17.391c0-7.852,5.237-14.498,12.403-16.651v-12.328v-48.877h-51.127
	c8.529,18.174,5.364,40.203-8.797,55.246l-12.848,13.647c-0.945,1.004-2.262,1.573-3.641,1.573s-2.696-0.569-3.641-1.573
	l-12.848-13.647c-14.161-15.043-17.326-37.072-8.797-55.246h-52.048v48.877v12.328c7.165,2.153,12.403,8.799,12.403,16.651
	c0,9.589-7.807,17.391-17.403,17.391s-17.403-7.801-17.403-17.391c0-7.852,5.237-14.498,12.403-16.651v-7.328h-19.616v38.692
	c7.165,2.153,12.403,8.799,12.403,16.651c0,9.589-7.807,17.391-17.403,17.391s-17.403-7.801-17.403-17.391
	c0-7.852,5.237-14.498,12.403-16.651v-38.692h-12.134c-2.156,7.158-8.806,12.391-16.662,12.391c-9.596,0-17.403-7.801-17.403-17.391
	s7.807-17.391,17.403-17.391c7.857,0,14.507,5.232,16.662,12.391h41.749v-22.634h-18.407c-2.156,7.158-8.806,12.391-16.662,12.391
	c-9.596,0-17.403-7.801-17.403-17.391s7.807-17.391,17.403-17.391c7.857,0,14.507,5.232,16.662,12.391h18.407v-16.243
	c0-2.761,2.239-5,5-5h13.667v-18.114c-7.165-2.153-12.403-8.799-12.403-16.651C168.93,132.695,176.737,124.893,186.333,124.893z
	 M135,203.292c0-4.075-3.321-7.391-7.403-7.391s-7.403,3.315-7.403,7.391s3.321,7.391,7.403,7.391S135,207.368,135,203.292z
	 M138.051,288.878c-4.082,0-7.403,3.315-7.403,7.391s3.321,7.391,7.403,7.391s7.403-3.315,7.403-7.391
	S142.133,288.878,138.051,288.878z M111.658,235.926c0-4.075-3.321-7.391-7.403-7.391s-7.403,3.315-7.403,7.391
	s3.321,7.391,7.403,7.391S111.658,240.001,111.658,235.926z M167.667,257.515c-4.082,0-7.403,3.315-7.403,7.391
	s3.321,7.391,7.403,7.391s7.403-3.315,7.403-7.391S171.749,257.515,167.667,257.515z M361.028,288.878
	c-4.082,0-7.403,3.315-7.403,7.391s3.321,7.391,7.403,7.391s7.403-3.315,7.403-7.391S365.11,288.878,361.028,288.878z
	 M387.421,235.926c0,4.075,3.321,7.391,7.403,7.391s7.403-3.315,7.403-7.391s-3.321-7.391-7.403-7.391
	S387.421,231.851,387.421,235.926z M364.079,203.292c0,4.075,3.321,7.391,7.403,7.391s7.403-3.315,7.403-7.391
	s-3.321-7.391-7.403-7.391S364.079,199.217,364.079,203.292z M331.412,257.515c-4.082,0-7.403,3.315-7.403,7.391
	s3.321,7.391,7.403,7.391s7.403-3.315,7.403-7.391S335.494,257.515,331.412,257.515z M312.746,149.675
	c4.082,0,7.403-3.315,7.403-7.391c0-4.076-3.321-7.391-7.403-7.391s-7.403,3.315-7.403,7.391
	C305.343,146.359,308.664,149.675,312.746,149.675z M261.327,32.5c-0.063-0.123-0.126-0.247-0.19-0.37
	c-0.652-1.262-1.323-2.516-2.01-3.761c-0.249-0.45-0.504-0.898-0.758-1.346c-0.603-1.068-1.213-2.132-1.84-3.185
	c-0.435-0.728-0.885-1.448-1.332-2.17c-0.492-0.796-0.978-1.596-1.483-2.381c-0.992-1.539-2.006-3.068-3.055-4.578L250,13.762
	l-0.658,0.947c-1.049,1.51-2.063,3.039-3.055,4.578c-0.505,0.786-0.992,1.585-1.483,2.381c-0.447,0.722-0.897,1.442-1.332,2.17
	c-0.627,1.053-1.237,2.117-1.84,3.185c-0.254,0.448-0.509,0.896-0.758,1.346c-0.687,1.245-1.358,2.498-2.01,3.761
	c-0.064,0.123-0.127,0.247-0.19,0.37c3.232,2.462,7.216,3.831,11.327,3.831S258.096,34.962,261.327,32.5z M263.919,187.049H250
	h-0.921h-12.998c-9.555,15.198-7.732,35.172,4.712,48.391l9.207,9.78l9.207-9.78C271.651,222.222,273.474,202.247,263.919,187.049z
	 M232.671,177.049h0.752h15.656H250h16.577h0.752v-14.286h-34.657V177.049z M178.93,142.284c0,4.075,3.321,7.391,7.403,7.391
	s7.403-3.315,7.403-7.391c0-4.076-3.321-7.391-7.403-7.391S178.93,138.208,178.93,142.284z M222.671,271.225v27.972
	c0,2.761,2.239,5,5,5s5-2.239,5-5v-27.972c0-2.761-2.239-5-5-5S222.671,268.463,222.671,271.225z M250,278.878c-2.761,0-5,2.239-5,5
	v24.781c0,2.761,2.239,5,5,5s5-2.239,5-5v-24.781C255,281.117,252.761,278.878,250,278.878z M275.015,266.225c-2.761,0-5,2.239-5,5
	v27.972c0,2.761,2.239,5,5,5s5-2.239,5-5v-27.972C280.015,268.463,277.776,266.225,275.015,266.225z M476.376,109.387v35.408
	c0,2.007-1.2,3.819-3.047,4.603c-0.63,0.267-1.294,0.397-1.952,0.397c-1.272,0-2.524-0.485-3.475-1.404l-29.415-28.422
	c-4.875-4.71-11.294-7.304-18.077-7.304h-24.994v40.542c0,8.616-7.01,15.625-15.625,15.625h-0.011
	c-8.616,0-15.625-7.009-15.625-15.625v-40.542h-9.647c-17.346,0-31.458-14.1-31.458-31.432s14.112-31.432,31.458-31.432h65.901
	c6.783,0,13.203-2.594,18.077-7.304l29.416-28.422c1.443-1.395,3.58-1.79,5.427-1.007c1.847,0.784,3.047,2.596,3.047,4.603v35.408
	C489.783,55.45,500,67.168,500,81.233S489.783,107.016,476.376,109.387z M385.417,112.665h-11.261v40.542
	c0,3.102,2.523,5.625,5.625,5.625h0.011c3.102,0,5.625-2.523,5.625-5.625V112.665z M466.376,104.833v-47.2V29.455l-20.941,20.234
	c-6.749,6.521-15.636,10.113-25.025,10.113h-65.901c-11.832,0-21.458,9.614-21.458,21.432c0,11.818,9.626,21.432,21.458,21.432
	h14.647h21.261h29.994c9.389,0,18.276,3.591,25.025,10.113l20.94,20.234V104.833z M490,81.233c0-8.527-5.774-15.732-13.624-17.919
	v35.838C484.226,96.965,490,89.76,490,81.233z M61.513,119.969l-29.416,28.422c-0.951,0.919-2.203,1.404-3.475,1.404
	c-0.659,0-1.322-0.13-1.952-0.397c-1.847-0.784-3.047-2.596-3.047-4.603v-35.408C10.217,107.016,0,95.299,0,81.233
	S10.217,55.45,23.624,53.079V17.671c0-2.007,1.2-3.819,3.047-4.603c1.846-0.784,3.984-0.388,5.427,1.007l29.415,28.422
	c4.875,4.71,11.294,7.304,18.077,7.304h65.901c17.346,0,31.458,14.1,31.458,31.432s-14.112,31.432-31.458,31.432h-9.647v40.542
	c0,8.616-7.009,15.625-15.625,15.625h-0.011c-8.616,0-15.625-7.009-15.625-15.625v-40.542H79.589
	C72.807,112.665,66.387,115.259,61.513,119.969z M125.844,112.665h-11.261v40.542c0,3.102,2.523,5.625,5.625,5.625h0.011
	c3.102,0,5.625-2.523,5.625-5.625V112.665z M23.624,99.152V63.314C15.774,65.501,10,72.706,10,81.233
	C10,89.76,15.774,96.965,23.624,99.152z M54.564,112.778c6.749-6.521,15.636-10.113,25.025-10.113h29.994h21.261h14.647
	c11.832,0,21.458-9.614,21.458-21.432c0-11.818-9.626-21.432-21.458-21.432H79.59c-9.389,0-18.277-3.591-25.026-10.113
	l-20.94-20.234v28.179v47.2v28.179L54.564,112.778z"/>
</svg>
