<?xml version="1.0" encoding="iso-8859-1"?>
<!-- Generator: Adobe Illustrator 22.0.1, SVG Export Plug-In . SVG Version: 6.00 Build 0)  -->
<svg version="1.1" id="Layer_1" xmlns="http://www.w3.org/2000/svg" xmlns:xlink="http://www.w3.org/1999/xlink" x="0px" y="0px"
	 viewBox="0 0 64 64" style="enable-background:new 0 0 64 64;" xml:space="preserve">
<style type="text/css">
	.st0{fill:#F8F3F3;}
	.st1{fill:#63312D;}
	.st2{fill:#E1DDDD;}
	.st3{fill:#84DBFF;}
	.st4{fill:#CAF4FF;}
	.st5{fill:#52BADB;}
	.st6{fill:#F9DD9D;}
	.st7{fill:#FFEECF;}
	.st8{fill:#EFC36A;}
	.st9{fill:#F7A085;}
	.st10{fill:#82D9FF;}
	.st11{fill:#F7DB9B;}
	.st12{fill:#F9A287;}
	.st13{fill:#FFC8BB;}
	.st14{fill:#52B8D9;}
	.st15{fill:#DB785A;}
	.st16{fill:#EDCB85;}
	.st17{fill:#DBAB56;}
	.st18{fill:#D3A553;}
	.st19{fill:#FFFFFF;}
</style>
<g>
	<path class="st10" d="M55.526,45.052H5.108c-1.105,0-2-0.895-2-2V11.694c0-1.105,0.895-2,2-2h50.418c1.105,0,2,0.895,2,2v31.358
		C57.526,44.157,56.631,45.052,55.526,45.052z"/>
	<path class="st4" d="M4.687,44.583V12.225c0-0.552,0.448-1,1-1h51.418c0.127,0,0.251,0.015,0.372,0.038
		c-0.198-0.897-0.994-1.569-1.951-1.569H5.108c-1.105,0-2,0.895-2,2v31.358c0,0.977,0.702,1.788,1.628,1.962
		C4.706,44.875,4.687,44.732,4.687,44.583z"/>
	<path class="st1" d="M55.526,45.552H5.108c-1.378,0-2.5-1.122-2.5-2.5V11.694c0-1.378,1.122-2.5,2.5-2.5h50.418
		c1.378,0,2.5,1.122,2.5,2.5v31.358C58.026,44.431,56.905,45.552,55.526,45.552z M5.108,10.194c-0.827,0-1.5,0.673-1.5,1.5v31.358
		c0,0.827,0.673,1.5,1.5,1.5h50.418c0.827,0,1.5-0.673,1.5-1.5V11.694c0-0.827-0.673-1.5-1.5-1.5H5.108z"/>
	<rect x="7.141" y="13.748" class="st0" width="41.939" height="27.25"/>
	<path class="st1" d="M49.08,41.498H7.141c-0.276,0-0.5-0.224-0.5-0.5v-27.25c0-0.276,0.224-0.5,0.5-0.5H49.08
		c0.276,0,0.5,0.224,0.5,0.5v27.25C49.58,41.274,49.356,41.498,49.08,41.498z M7.641,40.498H48.58v-26.25H7.641V40.498z"/>
	<path class="st14" d="M58.892,9.694h-3.365c1.105,0,2,0.895,2,2v31.358c0,1.105-0.895,2-2,2h3.365c1.105,0,2-0.895,2-2V11.694
		C60.892,10.589,59.996,9.694,58.892,9.694z"/>
	<circle class="st12" cx="26.088" cy="23.144" r="4.417"/>
	<path class="st1" d="M26.088,28.061c-2.711,0-4.917-2.206-4.917-4.917c0-2.711,2.206-4.917,4.917-4.917
		c2.711,0,4.917,2.206,4.917,4.917C31.005,25.855,28.799,28.061,26.088,28.061z M26.088,19.227c-2.16,0-3.917,1.757-3.917,3.917
		s1.757,3.917,3.917,3.917s3.917-1.757,3.917-3.917S28.248,19.227,26.088,19.227z"/>
	<path class="st1" d="M26.088,30.561c-4.089,0-7.417-3.327-7.417-7.417c0-4.089,3.327-7.417,7.417-7.417
		c4.09,0,7.417,3.327,7.417,7.417C33.505,27.233,30.178,30.561,26.088,30.561z M26.088,16.727c-3.538,0-6.417,2.878-6.417,6.417
		c0,3.539,2.878,6.417,6.417,6.417c3.539,0,6.417-2.878,6.417-6.417C32.505,19.605,29.626,16.727,26.088,16.727z"/>
	<path class="st1" d="M17.787,28.52c-1.043-1.607-1.594-3.467-1.594-5.376c0-2.042,0.623-4.007,1.802-5.683l0.818,0.575
		c-1.06,1.507-1.62,3.273-1.62,5.108c0,1.716,0.496,3.387,1.433,4.833L17.787,28.52z"/>
	<path class="st1" d="M34.389,28.521l-0.839-0.545c0.938-1.445,1.434-3.116,1.434-4.832c0-1.835-0.56-3.602-1.62-5.108l0.817-0.575
		c1.179,1.675,1.803,3.641,1.803,5.683C35.984,25.054,35.433,26.913,34.389,28.521z"/>
	<path class="st1" d="M58.892,45.552h-3.365c-0.276,0-0.5-0.224-0.5-0.5s0.224-0.5,0.5-0.5c0.827,0,1.5-0.673,1.5-1.5V11.694
		c0-0.827-0.673-1.5-1.5-1.5c-0.276,0-0.5-0.224-0.5-0.5s0.224-0.5,0.5-0.5h3.365c1.378,0,2.5,1.122,2.5,2.5v31.358
		C61.392,44.431,60.27,45.552,58.892,45.552z M57.525,44.552h1.366c0.827,0,1.5-0.673,1.5-1.5V11.694c0-0.827-0.673-1.5-1.5-1.5
		h-1.366c0.314,0.418,0.501,0.938,0.501,1.5v31.358C58.026,43.615,57.84,44.134,57.525,44.552z"/>
	<path class="st11" d="M23.535,41.375l-2.48-2.48c-1.106-1.106-2.9-1.106-4.006,0h0c-1.106,1.106-1.106,2.9,0,4.006l6.486,6.486
		V41.375z"/>
	<path class="st11" d="M28.652,35.291V23.911c0-1.413-1.145-2.558-2.558-2.558h0c-1.413,0-2.558,1.145-2.558,2.558v11.381v15.696
		c0,1.833,1.486,3.319,3.319,3.319h12.541c1.833,0,3.319-1.486,3.319-3.319V37.946c0-1.466-1.189-2.655-2.655-2.655H28.652z"/>
	<path class="st1" d="M23.535,49.887c-0.13,0-0.258-0.051-0.354-0.146l-6.486-6.486c-0.629-0.629-0.977-1.466-0.977-2.357
		c0-0.89,0.347-1.727,0.977-2.356c1.299-1.3,3.414-1.3,4.713,0l2.48,2.48c0.094,0.094,0.146,0.221,0.146,0.354v8.012
		c0,0.202-0.122,0.385-0.309,0.462C23.664,49.875,23.599,49.887,23.535,49.887z M19.052,38.566c-0.597,0-1.195,0.228-1.649,0.682
		c-0.44,0.441-0.684,1.026-0.684,1.649c0,0.624,0.243,1.209,0.684,1.65l5.632,5.632v-6.598l-2.333-2.333
		C20.247,38.793,19.649,38.566,19.052,38.566z"/>
	<path class="st1" d="M39.395,54.806H26.854c-2.106,0-3.819-1.713-3.819-3.819V23.911c0-1.687,1.372-3.059,3.059-3.059
		s3.059,1.372,3.059,3.059v10.88h10.907c1.74,0,3.155,1.416,3.155,3.155v13.041C43.214,53.093,41.5,54.806,39.395,54.806z
		 M26.093,21.852c-1.135,0-2.059,0.923-2.059,2.059v27.077c0,1.554,1.265,2.819,2.819,2.819h12.541c1.555,0,2.819-1.265,2.819-2.819
		V37.946c0-1.188-0.967-2.155-2.155-2.155H28.652c-0.276,0-0.5-0.224-0.5-0.5v-11.38C28.152,22.775,27.229,21.852,26.093,21.852z"/>
	<rect x="51.688" y="25.795" class="st0" width="3.531" height="3.531"/>
</g>
</svg>
