<?xml version="1.0" encoding="utf-8"?>
<!-- Generator: Adobe Illustrator 19.2.0, SVG Export Plug-In . SVG Version: 6.00 Build 0)  -->
<svg version="1.1" id="Layer_1" xmlns="http://www.w3.org/2000/svg" xmlns:xlink="http://www.w3.org/1999/xlink" x="0px" y="0px"
	 viewBox="0 0 500 500" style="enable-background:new 0 0 500 500;" xml:space="preserve">
<style type="text/css">
	.st0{fill:#ECF4F7;}
	.st1{fill:#1C1D21;}
	.st2{fill:#83E1E5;}
	.st3{fill:#AAB1BA;}
	.st4{fill:none;stroke:#1C1D21;stroke-width:10;stroke-linecap:round;stroke-linejoin:round;stroke-miterlimit:10;}
	.st5{fill:#FDDF7F;}
	.st6{fill:#FFFFFF;}
</style>
<g>
	<g>
		<g>
			<path class="st2" d="M40,336v104c0,11,9,20,20,20h380c11,0,20-9,20-20V336H40z"/>
		</g>
	</g>
	<g>
		<g>
			<path class="st2" d="M460,128V62.4c0-11-9-20-20-20H60c-11,0-20,9-20,20V128H460z"/>
		</g>
	</g>
	<g>
		<g>
			<path class="st1" d="M465,500H35c-19.3,0-35-15.7-35-35V35C0,15.7,15.7,0,35,0h430c19.3,0,35,15.7,35,35v430
				C500,484.3,484.3,500,465,500z M35,10c-13.8,0-25,11.2-25,25v430c0,13.8,11.2,25,25,25h430c13.8,0,25-11.2,25-25V35
				c0-13.8-11.2-25-25-25H35z"/>
		</g>
	</g>
	<g>
		<g>
			<g>
				<path class="st1" d="M40,97.7c-2.8,0-5-2.2-5-5V62.4c0-13.8,11.2-25,25-25h4.3c2.8,0,5,2.2,5,5s-2.2,5-5,5H60
					c-8.3,0-15,6.7-15,15v30.3C45,95.4,42.8,97.7,40,97.7z"/>
			</g>
		</g>
		<g>
			<g>
				<path class="st1" d="M104,47.4H89c-2.8,0-5-2.2-5-5s2.2-5,5-5h15c2.8,0,5,2.2,5,5S106.8,47.4,104,47.4z"/>
			</g>
		</g>
	</g>
	<g>
		<g>
			<g>
				<path class="st1" d="M440,465h-4.3c-2.8,0-5-2.2-5-5s2.2-5,5-5h4.3c8.3,0,15-6.7,15-15v-30.3c0-2.8,2.2-5,5-5s5,2.2,5,5V440
					C465,453.8,453.8,465,440,465z"/>
			</g>
		</g>
		<g>
			<g>
				<path class="st1" d="M411,465h-15c-2.8,0-5-2.2-5-5s2.2-5,5-5h15c2.8,0,5,2.2,5,5S413.8,465,411,465z"/>
			</g>
		</g>
	</g>
	<g>
		<g>
			<g>
				<g>
					<path class="st5" d="M241,292.1H101.9c-11,0-20-9-20-20V133c0-11,9-20,20-20H241c11,0,20,9,20,20v139.1
						C261,283.2,252.1,292.1,241,292.1z"/>
				</g>
			</g>
			<g>
				<g>
					<g>
						<path class="st1" d="M216.9,170.9h-90.9c-2.8,0-5-2.2-5-5s2.2-5,5-5h90.9c2.8,0,5,2.2,5,5S219.7,170.9,216.9,170.9z"/>
					</g>
				</g>
				<g>
					<g>
						<path class="st1" d="M213.4,259.1c-1,0-2.1-0.3-3-1l-32.6-24.3c-15.9-11.8-27.3-26.7-33.1-43c-0.9-2.6,0.4-5.5,3-6.4
							c2.6-0.9,5.5,0.4,6.4,3c5.1,14.4,15.4,27.7,29.7,38.4l32.6,24.3c2.2,1.7,2.7,4.8,1,7C216.4,258.4,214.9,259.1,213.4,259.1z"/>
					</g>
				</g>
				<g>
					<g>
						<path class="st1" d="M126.1,259.1c-1.5,0-3-0.7-4-2c-1.7-2.2-1.2-5.3,1-7l32.6-24.3c21.6-16.1,33.4-37.4,33.4-59.9
							c0-2.8,2.2-5,5-5s5,2.2,5,5c0,25.4-13.6,50.1-37.4,67.9l-32.6,24.3C128.2,258.8,127.1,259.1,126.1,259.1z"/>
					</g>
				</g>
				<g>
					<g>
						<path class="st1" d="M171.5,170.9c-2.8,0-5-2.2-5-5V151c0-2.8,2.2-5,5-5c2.8,0,5,2.2,5,5v14.9
							C176.5,168.7,174.2,170.9,171.5,170.9z"/>
					</g>
				</g>
			</g>
			<g>
				<g>
					<path class="st1" d="M241,297.1H101.9c-13.8,0-25-11.2-25-25V133c0-13.8,11.2-25,25-25H241c13.8,0,25,11.2,25,25v139.1
						C266,285.9,254.8,297.1,241,297.1z M101.9,118c-8.3,0-15,6.7-15,15v139.1c0,8.3,6.7,15,15,15H241c8.3,0,15-6.7,15-15V133
						c0-8.3-6.7-15-15-15H101.9z"/>
				</g>
			</g>
		</g>
		<g>
			<g>
				<g>
					<path class="st0" d="M398.1,387H259c-11,0-20-9-20-20V227.9c0-11,9-20,20-20h139.1c11,0,20,9,20,20V367
						C418.1,378,409.1,387,398.1,387z"/>
				</g>
			</g>
			<g>
				<g>
					<g>
						<path class="st1" d="M281,354c-0.7,0-1.4-0.1-2.1-0.5c-2.5-1.2-3.6-4.1-2.4-6.6L324,243.8c0.8-1.8,2.6-2.9,4.5-2.9l0,0
							c2,0,3.7,1.1,4.5,2.9l47.5,103.1c1.2,2.5,0.1,5.5-2.4,6.6c-2.5,1.2-5.5,0.1-6.6-2.4l-42.9-93.2l-42.9,93.2
							C284.7,352.9,282.9,354,281,354z"/>
					</g>
				</g>
				<g>
					<g>
						<path class="st1" d="M353.7,305.6h-50.4c-2.8,0-5-2.2-5-5s2.2-5,5-5h50.4c2.8,0,5,2.2,5,5S356.5,305.6,353.7,305.6z"/>
					</g>
				</g>
			</g>
			<g>
				<g>
					<path class="st1" d="M398.1,392H259c-13.8,0-25-11.2-25-25V227.9c0-13.8,11.2-25,25-25h139.1c13.8,0,25,11.2,25,25V367
						C423.1,380.8,411.9,392,398.1,392z M259,212.9c-8.3,0-15,6.7-15,15V367c0,8.3,6.7,15,15,15h139.1c8.3,0,15-6.7,15-15V227.9
						c0-8.3-6.7-15-15-15H259z"/>
				</g>
			</g>
		</g>
	</g>
	<g>
		<g>
			<g>
				<path class="st1" d="M418.1,179L418.1,179c-2.8,0-5-2.2-5-5l0-41c0-8.3-6.7-15-15-15H276c-2.8,0-5-2.2-5-5c0-2.8,2.2-5,5-5
					h122.1c13.8,0,25,11.2,25,25l0,41C423.1,176.8,420.8,179,418.1,179z"/>
			</g>
		</g>
		<g>
			<g>
				<path class="st1" d="M418.1,179c-1.5,0-2.9-0.7-3.9-1.9l-21.4-26.4c-1.7-2.1-1.4-5.3,0.7-7c2.1-1.7,5.3-1.4,7,0.7l17.5,21.6
					l17.5-21.6c1.7-2.1,4.9-2.5,7-0.7c2.1,1.7,2.5,4.9,0.7,7L422,177.1C421,178.3,419.6,179,418.1,179z"/>
			</g>
		</g>
	</g>
	<g>
		<g>
			<g>
				<path class="st1" d="M223.8,392H101.7c-13.8,0-25-11.2-25-25l0-41c0-2.8,2.2-5,5-5l0,0c2.8,0,5,2.2,5,5l0,41c0,8.3,6.7,15,15,15
					h122.1c2.8,0,5,2.2,5,5C228.8,389.7,226.6,392,223.8,392z"/>
			</g>
		</g>
		<g>
			<g>
				<path class="st1" d="M60.3,357.4c-1.1,0-2.2-0.4-3.1-1.1c-2.1-1.7-2.5-4.9-0.7-7l21.4-26.4c0.9-1.2,2.4-1.9,3.9-1.9
					c1.5,0,2.9,0.7,3.9,1.9l21.4,26.4c1.7,2.1,1.4,5.3-0.7,7c-2.1,1.7-5.3,1.4-7-0.7l-17.5-21.6l-17.5,21.6
					C63.2,356.8,61.8,357.4,60.3,357.4z"/>
			</g>
		</g>
	</g>
</g>
</svg>
