<?xml version="1.0" encoding="iso-8859-1"?>
<!-- Generator: Adobe Illustrator 22.0.1, SVG Export Plug-In . SVG Version: 6.00 Build 0)  -->
<svg version="1.1" id="Layer_1" xmlns="http://www.w3.org/2000/svg" xmlns:xlink="http://www.w3.org/1999/xlink" x="0px" y="0px"
	 viewBox="0 0 64 64" style="enable-background:new 0 0 64 64;" xml:space="preserve">
<style type="text/css">
	.st0{fill:#F8F3F3;}
	.st1{fill:#63312D;}
	.st2{fill:#E1DDDD;}
	.st3{fill:#84DBFF;}
	.st4{fill:#CAF4FF;}
	.st5{fill:#52BADB;}
	.st6{fill:#F9DD9D;}
	.st7{fill:#FFEECF;}
	.st8{fill:#EFC36A;}
	.st9{fill:#F7A085;}
	.st10{fill:#82D9FF;}
	.st11{fill:#F7DB9B;}
	.st12{fill:#F9A287;}
	.st13{fill:#FFC8BB;}
	.st14{fill:#52B8D9;}
	.st15{fill:#DB785A;}
	.st16{fill:#EDCB85;}
	.st17{fill:#DBAB56;}
	.st18{fill:#D3A553;}
	.st19{fill:#FFFFFF;}
</style>
<g>
	<path class="st15" d="M52.486,8.875h-3.534c0.158,0.001,0.316,0.018,0.466,0.044c0.109,0.018,0.219,0.036,0.328,0.073
		c0.1,0.027,0.2,0.064,0.292,0.109c0.692,0.31,1.23,0.893,1.485,1.613c0.091,0.273,0.146,0.583,0.146,0.893v29.9
		c0,1.512-1.221,2.733-2.733,2.733h-3.228v0.002h6.78c1.803,0,3.265-1.462,3.265-3.265V12.139
		C55.751,10.336,54.289,8.875,52.486,8.875z"/>
	<path class="st1" d="M52.486,44.742h-6.779v-1h6.779c1.525,0,2.765-1.24,2.765-2.765V12.14c0-1.525-1.24-2.765-2.765-2.765h-6.779
		v-1h6.779c2.076,0,3.765,1.689,3.765,3.765v28.838C56.251,43.053,54.562,44.742,52.486,44.742z"/>
	<path class="st12" d="M51.522,10.713c-0.255-0.72-0.793-1.303-1.485-1.613c-0.091-0.046-0.191-0.082-0.292-0.109
		c-0.109-0.036-0.219-0.055-0.328-0.073c-0.155-0.027-0.319-0.046-0.483-0.046H5.842c-1.512,0-2.733,1.221-2.733,2.733v29.9
		c0,0.091,0.009,0.191,0.018,0.282c0.009,0.128,0.027,0.255,0.064,0.383c0.046,0.21,0.128,0.41,0.228,0.592
		c0.128,0.255,0.301,0.483,0.501,0.674c0.141,0.143,0.3,0.265,0.468,0.373c0.029,0.018,0.06,0.032,0.089,0.049
		c0.16,0.094,0.33,0.17,0.509,0.23c0.003,0.001,0.006,0.003,0.008,0.004c0,0,0-0.001,0-0.001c0.267,0.088,0.548,0.147,0.848,0.147
		h43.092c1.512,0,2.733-1.221,2.733-2.733v-29.9C51.668,11.297,51.613,10.987,51.522,10.713z"/>
	<path class="st13" d="M51.522,10.713c-0.255-0.064-0.574-0.1-0.847-0.1H6.48c-0.902,0-1.64,0.729-1.64,1.631v31.003
		c0,0.301,0.064,0.583,0.155,0.847c-0.41-0.128-0.783-0.355-1.075-0.656c-0.2-0.2-0.374-0.419-0.501-0.674
		c-0.1-0.182-0.173-0.383-0.228-0.592c-0.036-0.128-0.055-0.255-0.064-0.383c-0.009-0.091-0.018-0.191-0.018-0.282v-29.9
		c0-1.512,1.221-2.733,2.733-2.733h43.092c0.164,0,0.328,0.018,0.483,0.046c0.109,0.018,0.219,0.036,0.328,0.073
		c0.1,0.027,0.2,0.064,0.292,0.109C50.729,9.411,51.267,9.994,51.522,10.713z"/>
	<path class="st1" d="M48.937,44.742H5.841c-1.783,0-3.233-1.451-3.233-3.233V11.608c0-1.783,1.451-3.233,3.233-3.233h43.096
		c1.783,0,3.233,1.451,3.233,3.233v29.901C52.17,43.292,50.72,44.742,48.937,44.742z M5.841,9.375c-1.231,0-2.233,1.002-2.233,2.233
		v29.901c0,1.231,1.002,2.233,2.233,2.233h43.096c1.231,0,2.233-1.002,2.233-2.233V11.608c0-1.231-1.001-2.233-2.233-2.233H5.841z"
		/>
	<rect id="XMLID_6_" x="7.121" y="12.82" class="st0" width="40.808" height="25.237"/>
	<polygon class="st2" points="8.855,14.574 47.929,14.574 47.929,12.82 7.121,12.82 7.121,38.057 8.855,38.057 	"/>
	<path class="st1" d="M47.929,38.557H7.121c-0.276,0-0.5-0.224-0.5-0.5V12.82c0-0.276,0.224-0.5,0.5-0.5h40.809
		c0.276,0,0.5,0.224,0.5,0.5v25.237C48.429,38.333,48.206,38.557,47.929,38.557z M7.621,37.557h39.809V13.32H7.621V37.557z"/>
	<rect id="XMLID_4_" x="23.437" y="44.242" class="st11" width="10.247" height="6.937"/>
	<rect id="XMLID_3_" x="23.437" y="44.242" class="st16" width="10.247" height="1.781"/>
	<rect x="29.916" y="44.245" class="st8" width="3.772" height="6.932"/>
	<rect x="29.916" y="44.245" class="st17" width="3.772" height="1.781"/>
	<path class="st1" d="M33.685,51.68H23.438c-0.276,0-0.5-0.224-0.5-0.5v-6.938c0-0.276,0.224-0.5,0.5-0.5h10.247
		c0.276,0,0.5,0.224,0.5,0.5v6.938C34.185,51.456,33.961,51.68,33.685,51.68z M23.938,50.68h9.247v-5.938h-9.247V50.68z"/>
	<rect x="29.419" y="44.242" class="st1" width="1" height="6.938"/>
	<path class="st12" d="M38.011,52.476c-0.155-0.519-0.528-0.929-1.011-1.148c-0.137-0.064-0.292-0.1-0.437-0.118
		c-0.1-0.018-0.191-0.027-0.292-0.027H18.15c-1.011,0-1.822,0.811-1.822,1.822v2.123h21.765v-2.123
		C38.093,52.822,38.066,52.64,38.011,52.476z"/>
	<path class="st13" d="M38.011,52.476H18.46c-0.437,0-0.784,0.346-0.784,0.774v1.877h-1.348v-2.123c0-1.011,0.811-1.822,1.822-1.822
		h18.121c0.1,0,0.191,0.009,0.292,0.027c0.146,0.018,0.301,0.055,0.437,0.118C37.483,51.546,37.856,51.956,38.011,52.476z"/>
	<path class="st1" d="M38.089,55.625H16.324c-0.276,0-0.5-0.224-0.5-0.5v-2.123c0-1.28,1.042-2.322,2.322-2.322h18.121
		c1.28,0,2.322,1.042,2.322,2.322v2.123C38.589,55.401,38.365,55.625,38.089,55.625z M16.824,54.625h20.765v-1.623
		c0-0.729-0.593-1.322-1.322-1.322H18.146c-0.729,0-1.322,0.593-1.322,1.322V54.625z"/>
	<path class="st15" d="M38.977,51.179h-2.71c1.006,0,1.822,0.816,1.822,1.822v2.123h2.71v-2.123
		C40.799,51.995,39.983,51.179,38.977,51.179z"/>
	<path class="st1" d="M40.799,55.625h-2.71c-0.276,0-0.5-0.224-0.5-0.5v-2.123c0-0.729-0.593-1.322-1.322-1.322
		c-0.276,0-0.5-0.224-0.5-0.5s0.224-0.5,0.5-0.5h2.709c1.28,0,2.322,1.042,2.322,2.322v2.123
		C41.299,55.401,41.075,55.625,40.799,55.625z M38.589,54.625h1.71v-1.623c0-0.729-0.593-1.322-1.322-1.322h-0.802
		c0.261,0.375,0.414,0.832,0.414,1.322V54.625z"/>
	<path class="st10" d="M59.892,55.082H44.876c-0.552,0-1-0.448-1-1V31.815c0-0.552,0.448-1,1-1h15.017c0.552,0,1,0.448,1,1v22.267
		C60.892,54.634,60.445,55.082,59.892,55.082z"/>
	<path class="st1" d="M59.893,55.582H44.876c-0.827,0-1.5-0.673-1.5-1.5V31.815c0-0.827,0.673-1.5,1.5-1.5h15.017
		c0.827,0,1.5,0.673,1.5,1.5v22.267C61.393,54.909,60.72,55.582,59.893,55.582z M44.876,31.315c-0.276,0-0.5,0.224-0.5,0.5v22.267
		c0,0.276,0.224,0.5,0.5,0.5h15.017c0.276,0,0.5-0.224,0.5-0.5V31.815c0-0.276-0.224-0.5-0.5-0.5H44.876z"/>
	<path class="st10" d="M12.417,55.082H4.109c-0.552,0-1-0.448-1-1V39.057c0-0.552,0.448-1,1-1h8.308c0.552,0,1,0.448,1,1v15.025
		C13.417,54.634,12.97,55.082,12.417,55.082z"/>
	<path class="st1" d="M12.417,55.582H4.109c-0.827,0-1.5-0.673-1.5-1.5V39.057c0-0.827,0.673-1.5,1.5-1.5h8.309
		c0.827,0,1.5,0.673,1.5,1.5v15.025C13.917,54.909,13.245,55.582,12.417,55.582z M4.109,38.557c-0.276,0-0.5,0.224-0.5,0.5v15.025
		c0,0.276,0.224,0.5,0.5,0.5h8.309c0.276,0,0.5-0.224,0.5-0.5V39.057c0-0.276-0.224-0.5-0.5-0.5H4.109z"/>
	<rect x="5.183" y="40.232" class="st0" width="6.161" height="11.708"/>
	<path class="st1" d="M11.344,52.44H5.183c-0.276,0-0.5-0.224-0.5-0.5V40.232c0-0.276,0.224-0.5,0.5-0.5h6.161
		c0.276,0,0.5,0.224,0.5,0.5V51.94C11.844,52.217,11.62,52.44,11.344,52.44z M5.683,51.44h5.161V40.732H5.683V51.44z"/>
	<rect x="46.418" y="33.315" class="st0" width="11.933" height="17.5"/>
	<path class="st1" d="M58.351,51.315H46.417c-0.276,0-0.5-0.224-0.5-0.5v-17.5c0-0.276,0.224-0.5,0.5-0.5h11.933
		c0.276,0,0.5,0.224,0.5,0.5v17.5C58.851,51.092,58.627,51.315,58.351,51.315z M46.917,50.315h10.933v-16.5H46.917V50.315z"/>
	<rect x="7.688" y="52.987" class="st0" width="1" height="1"/>
	<rect x="51.652" y="52.253" class="st0" width="1.465" height="1.465"/>
	<rect x="11.931" y="17.272" class="st10" width="31.188" height="6.063"/>
	<rect x="11.931" y="25.438" class="st10" width="6.153" height="8.167"/>
	<rect x="20.417" y="25.69" class="st1" width="22.701" height="1"/>
	<rect x="20.417" y="28.546" class="st1" width="22.701" height="1"/>
	<rect x="20.417" y="31.402" class="st1" width="19.208" height="1"/>
	<rect x="49.001" y="35.753" class="st12" width="6.75" height="2.813"/>
	<rect x="49.001" y="39.94" class="st1" width="6.75" height="1"/>
	<rect x="49.001" y="42.284" class="st1" width="6.75" height="1"/>
	<rect x="49.001" y="44.628" class="st1" width="6.75" height="1"/>
	<rect x="49.001" y="46.972" class="st1" width="6.75" height="1"/>
	<rect x="6.876" y="42.065" class="st12" width="2.792" height="1.833"/>
	<rect x="6.876" y="44.628" class="st1" width="2.792" height="1"/>
	<rect x="6.876" y="46.69" class="st1" width="2.792" height="1"/>
	<rect x="6.876" y="48.753" class="st1" width="2.792" height="1"/>
</g>
</svg>
