<?xml version="1.0" encoding="utf-8"?>
<!-- Generator: Adobe Illustrator 21.1.0, SVG Export Plug-In . SVG Version: 6.00 Build 0)  -->
<svg version="1.1" id="Icon_Set" xmlns="http://www.w3.org/2000/svg" xmlns:xlink="http://www.w3.org/1999/xlink" x="0px" y="0px"
	 viewBox="0 0 64 64" style="enable-background:new 0 0 64 64;" xml:space="preserve">
<style type="text/css">
	.st0{fill:#263238;}
	.st1{fill:#FFD740;}
	.st2{fill:#FF5252;}
	.st3{fill:#40C4FF;}
	.st4{fill:#4DB6AC;}
	.st5{fill:#FFFFFF;}
	.st6{fill:#FFD345;}
</style>
<g>
	<g>
		<path class="st3" d="M32,59.5v-9.75c0-1.976-1.164-3.767-2.97-4.569L23,42.501c-1.433,2.13-4.569,2.126-5.998-0.007L17,42.491
			L17,42.491l-6.034,2.688C9.162,45.982,8,47.772,8,49.746V59.5"/>
		<path class="st0" d="M32,60c-0.276,0-0.5-0.224-0.5-0.5v-9.75c0-1.777-1.049-3.392-2.673-4.112l-5.667-2.519
			c-0.777,0.932-1.928,1.477-3.156,1.477c-0.002,0-0.003,0-0.005,0c-1.231-0.001-2.384-0.55-3.16-1.485l-5.67,2.525
			C9.547,46.357,8.5,47.972,8.5,49.746V59.5C8.5,59.776,8.276,60,8,60s-0.5-0.224-0.5-0.5v-9.754c0-2.169,1.28-4.142,3.262-5.024
			l6.034-2.688c0.211-0.096,0.463-0.03,0.604,0.157c0.605,0.901,1.546,1.404,2.601,1.405c0.001,0,0.002,0,0.004,0
			c1.053,0,1.993-0.5,2.582-1.374c0.136-0.201,0.396-0.275,0.618-0.178l6.03,2.68c1.984,0.881,3.267,2.854,3.267,5.026v9.75
			C32.5,59.776,32.276,60,32,60z"/>
	</g>
	<g>
		<path class="st0" d="M52,22H4c-0.276,0-0.5-0.224-0.5-0.5V16c0-1.654,1.346-3,3-3h43c1.654,0,3,1.346,3,3v5.5
			C52.5,21.776,52.276,22,52,22z M4.5,21h47v-5c0-1.103-0.897-2-2-2h-43c-1.103,0-2,0.897-2,2V21z"/>
	</g>
	<g>
		<path class="st0" d="M8.5,19.5c-1.103,0-2-0.897-2-2s0.897-2,2-2s2,0.897,2,2S9.603,19.5,8.5,19.5z M8.5,16.5
			c-0.551,0-1,0.448-1,1s0.449,1,1,1s1-0.448,1-1S9.051,16.5,8.5,16.5z"/>
	</g>
	<g>
		<path class="st0" d="M13.5,19.5c-1.103,0-2-0.897-2-2s0.897-2,2-2s2,0.897,2,2S14.603,19.5,13.5,19.5z M13.5,16.5
			c-0.551,0-1,0.448-1,1s0.449,1,1,1s1-0.448,1-1S14.051,16.5,13.5,16.5z"/>
	</g>
	<g>
		<path class="st0" d="M53,7h-4c-0.276,0-0.5-0.224-0.5-0.5S48.724,6,49,6h4c0.276,0,0.5,0.224,0.5,0.5S53.276,7,53,7z"/>
	</g>
	<g>
		<path class="st0" d="M51,9c-0.276,0-0.5-0.224-0.5-0.5v-4C50.5,4.224,50.724,4,51,4s0.5,0.224,0.5,0.5v4C51.5,8.776,51.276,9,51,9
			z"/>
	</g>
	<g>
		<path class="st0" d="M60,13.5h-4c-0.276,0-0.5-0.224-0.5-0.5s0.224-0.5,0.5-0.5h4c0.276,0,0.5,0.224,0.5,0.5S60.276,13.5,60,13.5z
			"/>
	</g>
	<g>
		<path class="st0" d="M58,15.5c-0.276,0-0.5-0.224-0.5-0.5v-4c0-0.276,0.224-0.5,0.5-0.5s0.5,0.224,0.5,0.5v4
			C58.5,15.276,58.276,15.5,58,15.5z"/>
	</g>
	<g>
		<path class="st0" d="M36,44h-3c-0.276,0-0.5-0.224-0.5-0.5v-5c0-0.276,0.224-0.5,0.5-0.5h3c0.276,0,0.5,0.224,0.5,0.5v5
			C36.5,43.776,36.276,44,36,44z M33.5,43h2v-4h-2V43z"/>
	</g>
	<g>
		<path class="st0" d="M48,44h-3c-0.276,0-0.5-0.224-0.5-0.5v-8c0-0.276,0.224-0.5,0.5-0.5h3c0.276,0,0.5,0.224,0.5,0.5v8
			C48.5,43.776,48.276,44,48,44z M45.5,43h2v-7h-2V43z"/>
	</g>
	<g>
		<rect x="39" y="32" class="st2" width="3" height="11.5"/>
		<path class="st0" d="M42,44h-3c-0.276,0-0.5-0.224-0.5-0.5V32c0-0.276,0.224-0.5,0.5-0.5h3c0.276,0,0.5,0.224,0.5,0.5v11.5
			C42.5,43.776,42.276,44,42,44z M39.5,43h2V32.5h-2V43z"/>
	</g>
	<g>
		<path class="st0" d="M60,58h-2c-0.276,0-0.5-0.224-0.5-0.5S57.724,57,58,57h2c0.276,0,0.5,0.224,0.5,0.5S60.276,58,60,58z"/>
	</g>
	<g>
		<path class="st0" d="M56,58H36c-0.276,0-0.5-0.224-0.5-0.5S35.724,57,36,57h20c0.276,0,0.5,0.224,0.5,0.5S56.276,58,56,58z"/>
	</g>
	<g>
		<path class="st0" d="M13,10h-2c-0.276,0-0.5-0.224-0.5-0.5S10.724,9,11,9h2c0.276,0,0.5,0.224,0.5,0.5S13.276,10,13,10z"/>
	</g>
	<g>
		<path class="st0" d="M35,10H15c-0.276,0-0.5-0.224-0.5-0.5S14.724,9,15,9h20c0.276,0,0.5,0.224,0.5,0.5S35.276,10,35,10z"/>
	</g>
	<g>
		<path class="st0" d="M20,41.995c-4.687,0-8.5-3.813-8.5-8.5s3.813-8.5,8.5-8.5s8.5,3.813,8.5,8.5S24.687,41.995,20,41.995z
			 M20,25.995c-4.136,0-7.5,3.364-7.5,7.5s3.364,7.5,7.5,7.5s7.5-3.364,7.5-7.5S24.136,25.995,20,25.995z"/>
	</g>
	<g>
		<path class="st1" d="M25.547,28.87l0.596-0.496c-1.468-1.758-3.674-2.878-6.143-2.878c-4.418,0-8,3.582-8,8h0.755
			C17.429,33.495,21.955,31.859,25.547,28.87z"/>
		<path class="st0" d="M12.755,33.995H12c-0.276,0-0.5-0.224-0.5-0.5c0-4.687,3.813-8.5,8.5-8.5c2.526,0,4.905,1.115,6.527,3.059
			c0.085,0.102,0.126,0.233,0.114,0.366c-0.012,0.132-0.077,0.254-0.179,0.339l-0.596,0.495
			C22.192,32.312,17.536,33.995,12.755,33.995z M12.517,32.995h0.239c4.547,0,8.977-1.602,12.472-4.511h0l0.198-0.164
			c-1.414-1.483-3.364-2.325-5.425-2.325C16.033,25.995,12.775,29.092,12.517,32.995z"/>
	</g>
	<g>
		<path class="st0" d="M13,60c-0.276,0-0.5-0.224-0.5-0.5v-7c0-0.276,0.224-0.5,0.5-0.5s0.5,0.224,0.5,0.5v7
			C13.5,59.776,13.276,60,13,60z"/>
	</g>
	<g>
		<path class="st0" d="M27,60c-0.276,0-0.5-0.224-0.5-0.5v-7c0-0.276,0.224-0.5,0.5-0.5s0.5,0.224,0.5,0.5v7
			C27.5,59.776,27.276,60,27,60z"/>
	</g>
	<g>
		<path class="st0" d="M20.004,44.596c-0.002,0-0.003,0-0.005,0c-1.373-0.001-2.648-0.683-3.412-1.823
			C16.532,42.69,16.5,42.59,16.5,42.491v-1.579c0-0.341,0.378-0.589,0.696-0.464c1.802,0.728,3.819,0.725,5.616-0.003
			c0.154-0.064,0.33-0.044,0.467,0.048c0.138,0.094,0.221,0.249,0.221,0.415l0,1.593c0,0.1-0.03,0.196-0.085,0.279
			C22.649,43.917,21.375,44.596,20.004,44.596z M17.5,42.333c0.592,0.805,1.494,1.262,2.5,1.263c0.001,0,0.002,0,0.004,0
			c1.003,0,1.905-0.454,2.496-1.253l0-0.726c-1.621,0.501-3.377,0.502-5,0V42.333z"/>
	</g>
	<g>
		<path class="st0" d="M49.5,54H34c-0.276,0-0.5-0.224-0.5-0.5S33.724,53,34,53h15.5c1.103,0,2-0.897,2-2V22h-47v29
			c0,0.947,0.673,1.771,1.6,1.959c0.271,0.055,0.445,0.319,0.391,0.59c-0.055,0.271-0.316,0.446-0.59,0.391
			C4.51,53.657,3.5,52.421,3.5,51V21.5C3.5,21.224,3.724,21,4,21h48c0.276,0,0.5,0.224,0.5,0.5V51C52.5,52.654,51.154,54,49.5,54z"
			/>
	</g>
	<g>
		<path class="st0" d="M33,32.5c-0.15,0-0.298-0.067-0.397-0.195c-0.168-0.219-0.127-0.532,0.092-0.701l6.5-5
			c0.124-0.095,0.286-0.128,0.436-0.086l5.249,1.432l2.8-2.333c0.213-0.178,0.527-0.147,0.705,0.063
			c0.177,0.212,0.148,0.527-0.064,0.704l-3,2.5c-0.125,0.105-0.295,0.143-0.452,0.099l-5.261-1.435l-6.303,4.849
			C33.214,32.466,33.107,32.5,33,32.5z"/>
	</g>
</g>
</svg>
