<?xml version="1.0" encoding="iso-8859-1"?>
<!-- Generator: Adobe Illustrator 22.0.1, SVG Export Plug-In . SVG Version: 6.00 Build 0)  -->
<svg version="1.1" id="Layer_1" xmlns="http://www.w3.org/2000/svg" xmlns:xlink="http://www.w3.org/1999/xlink" x="0px" y="0px"
	 viewBox="0 0 64 64" style="enable-background:new 0 0 64 64;" xml:space="preserve">
<style type="text/css">
	.st0{fill:#F8F3F3;}
	.st1{fill:#63312D;}
	.st2{fill:#E1DDDD;}
	.st3{fill:#84DBFF;}
	.st4{fill:#CAF4FF;}
	.st5{fill:#52BADB;}
	.st6{fill:#F9DD9D;}
	.st7{fill:#FFEECF;}
	.st8{fill:#EFC36A;}
	.st9{fill:#F7A085;}
	.st10{fill:#82D9FF;}
	.st11{fill:#F7DB9B;}
	.st12{fill:#F9A287;}
	.st13{fill:#FFC8BB;}
	.st14{fill:#52B8D9;}
	.st15{fill:#DB785A;}
	.st16{fill:#EDCB85;}
	.st17{fill:#DBAB56;}
	.st18{fill:#D3A553;}
	.st19{fill:#FFFFFF;}
</style>
<g>
	<path class="st15" d="M55.548,13.663h-6.466v0h2.687c1.657,0,3,1.343,3,3v25.378c0,1.657-1.343,3-3,3h-2.687v0h6.466
		c1.72,0,3.113-1.394,3.113-3.114V16.776C58.661,15.057,57.267,13.663,55.548,13.663z"/>
	<path class="st1" d="M55.548,45.541h-6.466v-1h6.466c1.441,0,2.613-1.172,2.613-2.613V16.776c0-1.441-1.172-2.613-2.613-2.613
		h-6.466v-1h6.466c1.992,0,3.613,1.621,3.613,3.613v25.151C59.161,43.92,57.54,45.541,55.548,45.541z"/>
	<path id="XMLID_220_" class="st12" d="M51.77,45.041H11.457c-1.657,0-3-1.343-3-3V16.663c0-1.657,1.343-3,3-3H51.77
		c1.657,0,3,1.343,3,3v25.378C54.77,43.698,53.427,45.041,51.77,45.041z"/>
	<path class="st13" d="M10.144,43.729V17.334c0-1.095,0.888-1.983,1.983-1.983h41.33c0.389,0,0.757,0.08,1.098,0.214
		c-0.439-1.112-1.518-1.902-2.786-1.902H11.457c-1.657,0-3,1.343-3,3v25.378c0,1.268,0.79,2.347,1.902,2.786
		C10.224,44.486,10.144,44.117,10.144,43.729z"/>
	<path class="st1" d="M51.77,45.541H11.457c-1.93,0-3.5-1.57-3.5-3.5V16.663c0-1.93,1.57-3.5,3.5-3.5H51.77c1.93,0,3.5,1.57,3.5,3.5
		v25.378C55.27,43.971,53.699,45.541,51.77,45.541z M11.457,14.163c-1.379,0-2.5,1.122-2.5,2.5v25.378c0,1.378,1.121,2.5,2.5,2.5
		H51.77c1.379,0,2.5-1.122,2.5-2.5V16.663c0-1.378-1.121-2.5-2.5-2.5H11.457z"/>
	<rect id="XMLID_217_" x="12.284" y="17.425" class="st0" width="38.918" height="24.068"/>
	<polygon class="st2" points="13.938,19.099 51.202,19.099 51.202,17.425 12.284,17.425 12.284,41.493 13.938,41.493 	"/>
	<path class="st1" d="M51.202,41.993H12.284c-0.276,0-0.5-0.224-0.5-0.5V17.425c0-0.276,0.224-0.5,0.5-0.5h38.918
		c0.276,0,0.5,0.224,0.5,0.5v24.068C51.702,41.77,51.479,41.993,51.202,41.993z M12.784,40.993h37.918V17.925H12.784V40.993z"/>
	<path class="st6" d="M49.086,45.044v1.7c0,1.98-1.61,3.59-3.6,3.59H6.676c-0.74,0-1.43-0.22-2-0.61h-0.01
		c-0.95-0.65-1.58-1.74-1.58-2.98v-1.7H49.086z"/>
	<path class="st7" d="M4.506,46.714v1.92c0,0.38,0.06,0.75,0.16,1.09c-0.95-0.65-1.58-1.74-1.58-2.98v-1.7h46v1.67H4.506z"/>
	<path class="st1" d="M45.488,50.837H6.679c-2.257,0-4.094-1.836-4.094-4.094v-1.703c0-0.276,0.224-0.5,0.5-0.5h45.997
		c0.276,0,0.5,0.224,0.5,0.5v1.703C49.582,49.001,47.745,50.837,45.488,50.837z M3.585,45.541v1.203
		c0,1.706,1.388,3.094,3.094,3.094h38.81c1.706,0,3.094-1.388,3.094-3.094v-1.203H3.585z"/>
	<path class="st8" d="M49.082,45.041v1.702c0,1.985-1.609,3.594-3.594,3.594h11.833c1.985,0,3.594-1.609,3.594-3.594v-1.702H49.082z
		"/>
	<path class="st1" d="M57.321,50.837H45.488c-0.276,0-0.5-0.224-0.5-0.5s0.224-0.5,0.5-0.5c1.706,0,3.094-1.388,3.094-3.094v-1.703
		c0-0.276,0.224-0.5,0.5-0.5h11.833c0.276,0,0.5,0.224,0.5,0.5v1.703C61.415,49.001,59.578,50.837,57.321,50.837z M48.166,49.837
		h9.155c1.706,0,3.094-1.388,3.094-3.094v-1.203H49.582v1.203C49.582,47.978,49.033,49.086,48.166,49.837z"/>
	<polygon class="st11" points="24.9,38.566 23.735,37.402 22.571,36.237 38.67,20.138 40.999,22.467 	"/>
	<path class="st1" d="M24.899,39.066c-0.128,0-0.256-0.049-0.354-0.146l-2.328-2.329c-0.195-0.195-0.195-0.512,0-0.707
		l16.099-16.099c0.195-0.195,0.512-0.195,0.707,0l2.329,2.329c0.094,0.094,0.146,0.221,0.146,0.354s-0.053,0.26-0.146,0.354
		l-16.1,16.099C25.155,39.017,25.027,39.066,24.899,39.066z M23.278,36.237l1.621,1.622l15.393-15.392l-1.622-1.622L23.278,36.237z"
		/>
	
		<rect x="31.17" y="27.43" transform="matrix(0.7069 -0.7073 0.7073 0.7069 -10.6164 30.6447)" class="st1" width="1" height="1.407"/>
	
		<rect x="29.939" y="28.661" transform="matrix(0.7069 -0.7073 0.7073 0.7069 -11.8479 30.1345)" class="st1" width="1" height="1.407"/>
	
		<rect x="27.887" y="30.961" transform="matrix(0.7069 -0.7073 0.7073 0.7069 -14.0762 29.3575)" class="st1" width="1" height="1.407"/>
	
		<rect x="26.144" y="32.648" transform="matrix(0.7071 -0.7071 0.7071 0.7071 -15.7793 28.6086)" class="st1" width="1" height="1.407"/>
	
		<rect x="24.324" y="34.429" transform="matrix(0.7069 -0.7073 0.7073 0.7069 -17.5732 27.8534)" class="st1" width="1" height="1.407"/>
	
		<rect x="36.903" y="21.829" transform="matrix(0.7075 -0.7068 0.7068 0.7075 -4.9827 33.0269)" class="st1" width="1" height="1.407"/>
	
		<rect x="35.16" y="23.516" transform="matrix(0.7075 -0.7068 0.7068 0.7075 -6.6853 32.2885)" class="st1" width="1" height="1.407"/>
	
		<rect x="33.34" y="25.297" transform="matrix(0.7075 -0.7068 0.7068 0.7075 -8.476 31.5228)" class="st1" width="1" height="1.407"/>
	<polygon class="st10" points="39.072,34.713 40.364,38.121 36.956,36.829 22.487,22.361 24.604,20.244 	"/>
	<polygon class="st0" points="36.956,36.829 40.364,38.121 39.072,34.713 	"/>
	
		<rect x="23.424" y="20.732" transform="matrix(0.7071 -0.7071 0.7071 0.7071 -8.7367 24.2644)" class="st11" width="2.994" height="3.892"/>
	<path class="st1" d="M40.364,38.621c-0.06,0-0.119-0.011-0.177-0.032l-3.409-1.292c-0.066-0.025-0.127-0.064-0.177-0.114
		L22.134,22.714c-0.195-0.195-0.195-0.512,0-0.707l2.116-2.117c0.188-0.188,0.52-0.188,0.707,0l14.469,14.468
		c0.05,0.05,0.089,0.11,0.114,0.176l1.292,3.409c0.069,0.184,0.024,0.392-0.114,0.531C40.622,38.57,40.494,38.621,40.364,38.621z
		 M37.232,36.4l2.271,0.86l-0.86-2.27L24.604,20.951l-1.409,1.41L37.232,36.4z"/>
	
		<rect x="36.517" y="35.271" transform="matrix(0.7071 -0.7071 0.7071 0.7071 -14.16 37.3568)" class="st1" width="2.994" height="1"/>
	
		<rect x="24.801" y="23.554" transform="matrix(0.7071 -0.7071 0.7071 0.7071 -9.3067 25.6404)" class="st1" width="2.993" height="1"/>
	<rect x="38.862" y="28.745" class="st1" width="5.758" height="1"/>
	<rect x="45.41" y="28.745" class="st1" width="1.129" height="1"/>
	<rect x="18.866" y="28.745" class="st1" width="5.757" height="1"/>
	<rect x="16.947" y="28.745" class="st1" width="1.129" height="1"/>
</g>
</svg>
